%TF.GenerationSoftware,KiCad,Pcbnew,9.0.6*%
%TF.CreationDate,2026-03-21T19:45:09+01:00*%
%TF.ProjectId,Stylophone,5374796c-6f70-4686-9f6e-652e6b696361,rev?*%
%TF.SameCoordinates,Original*%
%TF.FileFunction,Copper,L2,Bot*%
%TF.FilePolarity,Positive*%
%FSLAX46Y46*%
G04 Gerber Fmt 4.6, Leading zero omitted, Abs format (unit mm)*
G04 Created by KiCad (PCBNEW 9.0.6) date 2026-03-21 19:45:09*
%MOMM*%
%LPD*%
G01*
G04 APERTURE LIST*
G04 Aperture macros list*
%AMRoundRect*
0 Rectangle with rounded corners*
0 $1 Rounding radius*
0 $2 $3 $4 $5 $6 $7 $8 $9 X,Y pos of 4 corners*
0 Add a 4 corners polygon primitive as box body*
4,1,4,$2,$3,$4,$5,$6,$7,$8,$9,$2,$3,0*
0 Add four circle primitives for the rounded corners*
1,1,$1+$1,$2,$3*
1,1,$1+$1,$4,$5*
1,1,$1+$1,$6,$7*
1,1,$1+$1,$8,$9*
0 Add four rect primitives between the rounded corners*
20,1,$1+$1,$2,$3,$4,$5,0*
20,1,$1+$1,$4,$5,$6,$7,0*
20,1,$1+$1,$6,$7,$8,$9,0*
20,1,$1+$1,$8,$9,$2,$3,0*%
G04 Aperture macros list end*
%TA.AperFunction,ComponentPad*%
%ADD10RoundRect,0.285750X-0.666750X-0.714250X0.666750X-0.714250X0.666750X0.714250X-0.666750X0.714250X0*%
%TD*%
%TA.AperFunction,ComponentPad*%
%ADD11C,1.600000*%
%TD*%
%TA.AperFunction,ComponentPad*%
%ADD12RoundRect,0.190500X-0.762000X-0.444500X0.762000X-0.444500X0.762000X0.444500X-0.762000X0.444500X0*%
%TD*%
%TA.AperFunction,ComponentPad*%
%ADD13R,1.700000X1.700000*%
%TD*%
%TA.AperFunction,ComponentPad*%
%ADD14C,1.700000*%
%TD*%
%TA.AperFunction,WasherPad*%
%ADD15RoundRect,0.190500X-0.762000X-0.444500X0.762000X-0.444500X0.762000X0.444500X-0.762000X0.444500X0*%
%TD*%
%TA.AperFunction,ComponentPad*%
%ADD16R,3.000000X3.000000*%
%TD*%
%TA.AperFunction,ComponentPad*%
%ADD17C,3.000000*%
%TD*%
%TA.AperFunction,ComponentPad*%
%ADD18R,1.800000X1.800000*%
%TD*%
%TA.AperFunction,ComponentPad*%
%ADD19C,1.800000*%
%TD*%
%TA.AperFunction,ViaPad*%
%ADD20C,0.600000*%
%TD*%
%TA.AperFunction,Conductor*%
%ADD21C,1.000000*%
%TD*%
%TA.AperFunction,Conductor*%
%ADD22C,0.200000*%
%TD*%
%TA.AperFunction,Conductor*%
%ADD23C,0.400000*%
%TD*%
G04 APERTURE END LIST*
D10*
%TO.P,J22,1,Pin_1*%
%TO.N,Net-(ESP32-R1-Pin_5)*%
X122936000Y-102819200D03*
%TD*%
D11*
%TO.P,R4,1*%
%TO.N,Net-(ESP32-R1-Pin_15)*%
X110490000Y-92964000D03*
%TO.P,R4,2*%
%TO.N,Net-(BTN-UP1-Pin_1)*%
X102870000Y-92964000D03*
%TD*%
%TO.P,R2,1*%
%TO.N,Net-(ESP32-R1-Pin_15)*%
X132334000Y-85852000D03*
%TO.P,R2,2*%
%TO.N,Net-(ESP32-L1-Pin_4)*%
X132334000Y-93472000D03*
%TD*%
D12*
%TO.P,J25,1,Pin_1*%
%TO.N,Net-(ESP32-R1-Pin_7)*%
X127977566Y-102819200D03*
%TD*%
D13*
%TO.P,BTN-MODE2,1,Pin_1*%
%TO.N,GND*%
X215646000Y-107950000D03*
%TD*%
D11*
%TO.P,R3,1*%
%TO.N,Net-(ESP32-R1-Pin_15)*%
X143764000Y-85852000D03*
%TO.P,R3,2*%
%TO.N,Net-(ESP32-L1-Pin_5)*%
X143764000Y-93472000D03*
%TD*%
D13*
%TO.P,ESP32-R1,1,Pin_1*%
%TO.N,Net-(ESP32-R1-Pin_1)*%
X167640000Y-58166000D03*
D14*
%TO.P,ESP32-R1,2,Pin_2*%
%TO.N,Net-(BTN-MODE1-Pin_1)*%
X170180000Y-58166000D03*
%TO.P,ESP32-R1,3,Pin_3*%
%TO.N,unconnected-(ESP32-R1-Pin_3-Pad3)*%
X172720000Y-58166000D03*
%TO.P,ESP32-R1,4,Pin_4*%
%TO.N,unconnected-(ESP32-R1-Pin_4-Pad4)*%
X175260000Y-58166000D03*
%TO.P,ESP32-R1,5,Pin_5*%
%TO.N,Net-(ESP32-R1-Pin_5)*%
X177800000Y-58166000D03*
%TO.P,ESP32-R1,6,Pin_6*%
%TO.N,Net-(ESP32-R1-Pin_6)*%
X180340000Y-58166000D03*
%TO.P,ESP32-R1,7,Pin_7*%
%TO.N,Net-(ESP32-R1-Pin_7)*%
X182880000Y-58166000D03*
%TO.P,ESP32-R1,8,Pin_8*%
%TO.N,Net-(ESP32-R1-Pin_8)*%
X185420000Y-58166000D03*
%TO.P,ESP32-R1,9,Pin_9*%
%TO.N,Net-(ESP32-R1-Pin_9)*%
X187960000Y-58166000D03*
%TO.P,ESP32-R1,10,Pin_10*%
%TO.N,Net-(ESP32-R1-Pin_10)*%
X190500000Y-58166000D03*
%TO.P,ESP32-R1,11,Pin_11*%
%TO.N,Net-(ESP32-R1-Pin_11)*%
X193040000Y-58166000D03*
%TO.P,ESP32-R1,12,Pin_12*%
%TO.N,unconnected-(ESP32-R1-Pin_12-Pad12)*%
X195580000Y-58166000D03*
%TO.P,ESP32-R1,13,Pin_13*%
%TO.N,Net-(ESP32-R1-Pin_13)*%
X198120000Y-58166000D03*
%TO.P,ESP32-R1,14,Pin_14*%
%TO.N,GND*%
X200660000Y-58166000D03*
%TO.P,ESP32-R1,15,Pin_15*%
%TO.N,Net-(ESP32-R1-Pin_15)*%
X203200000Y-58166000D03*
%TD*%
D12*
%TO.P,J26,1,Pin_1*%
%TO.N,Net-(ESP32-R1-Pin_6)*%
X117817566Y-102819200D03*
%TD*%
D11*
%TO.P,R1,1*%
%TO.N,Net-(ESP32-R1-Pin_1)*%
X154686000Y-85598000D03*
%TO.P,R1,2*%
%TO.N,Net-(LED1-A)*%
X154686000Y-93218000D03*
%TD*%
D13*
%TO.P,BTN-UP1,1,Pin_1*%
%TO.N,Net-(BTN-UP1-Pin_1)*%
X90424000Y-112950000D03*
%TD*%
D11*
%TO.P,R5,1*%
%TO.N,Net-(ESP32-R1-Pin_15)*%
X122428000Y-85598000D03*
%TO.P,R5,2*%
%TO.N,Net-(ESP32-L1-Pin_3)*%
X122428000Y-93218000D03*
%TD*%
D10*
%TO.P,J21,1,Pin_1*%
%TO.N,Net-(ESP32-L1-Pin_8)*%
X153416000Y-102819200D03*
%TD*%
D12*
%TO.P,J17,1,Pin_1*%
%TO.N,Net-(ESP32-R1-Pin_9)*%
X158521400Y-102681400D03*
%TD*%
%TO.P,J5,1,Pin_1*%
%TO.N,Net-(ESP32-R1-Pin_8)*%
X168681400Y-102681400D03*
%TD*%
D15*
%TO.P,REF\u002A\u002A,*%
%TO.N,*%
X95538000Y-69088000D03*
X131538000Y-69088000D03*
%TD*%
D13*
%TO.P,JGND2,1,Pin_1*%
%TO.N,GND*%
X215646000Y-128016000D03*
%TD*%
D10*
%TO.P,J18,1,Pin_1*%
%TO.N,Net-(ESP32-L1-Pin_9)*%
X163576000Y-102819200D03*
%TD*%
%TO.P,J16,1,Pin_1*%
%TO.N,Net-(ESP32-R1-Pin_10)*%
X173736000Y-102819200D03*
%TD*%
%TO.P,J27,1,Pin_1*%
%TO.N,Net-(ESP32-L1-Pin_10)*%
X194056000Y-102819200D03*
%TD*%
%TO.P,J32,1,Pin_1*%
%TO.N,Net-(ESP32-L1-Pin_4)*%
X133096000Y-102819200D03*
%TD*%
D13*
%TO.P,SND1,1,Pin_1*%
%TO.N,Net-(ESP32-L1-Pin_15)*%
X152400000Y-60452000D03*
D14*
%TO.P,SND1,2,Pin_2*%
%TO.N,GND*%
X152400000Y-62992000D03*
%TO.P,SND1,3,Pin_3*%
%TO.N,unconnected-(SND1-Pin_3-Pad3)*%
X152400000Y-65532000D03*
%TO.P,SND1,4,Pin_4*%
%TO.N,unconnected-(SND1-Pin_4-Pad4)*%
X152400000Y-68072000D03*
%TO.P,SND1,5,Pin_5*%
%TO.N,Net-(ESP32-L1-Pin_13)*%
X152400000Y-70612000D03*
%TO.P,SND1,6,Pin_6*%
%TO.N,Net-(ESP32-L1-Pin_12)*%
X152400000Y-73152000D03*
%TO.P,SND1,7,Pin_7*%
%TO.N,Net-(ESP32-L1-Pin_11)*%
X152400000Y-75692000D03*
%TD*%
D13*
%TO.P,BTN-MODE1,1,Pin_1*%
%TO.N,Net-(BTN-MODE1-Pin_1)*%
X215646000Y-112950000D03*
%TD*%
D16*
%TO.P,RV1,1,1*%
%TO.N,Net-(ESP32-R1-Pin_15)*%
X85090000Y-64008000D03*
D17*
%TO.P,RV1,2,2*%
%TO.N,Net-(ESP32-L1-Pin_6)*%
X85090000Y-69008000D03*
%TO.P,RV1,3,3*%
%TO.N,GND*%
X85090000Y-74008000D03*
%TD*%
D18*
%TO.P,LED1,1,K*%
%TO.N,GND*%
X90678000Y-95504000D03*
D19*
%TO.P,LED1,2,A*%
%TO.N,Net-(LED1-A)*%
X90678000Y-92964000D03*
%TD*%
D13*
%TO.P,BTN-UP2,1,Pin_1*%
%TO.N,GND*%
X90424000Y-107950000D03*
%TD*%
%TO.P,ESP32-L1,1,Pin_1*%
%TO.N,unconnected-(ESP32-L1-Pin_1-Pad1)*%
X167640000Y-83566000D03*
D14*
%TO.P,ESP32-L1,2,Pin_2*%
%TO.N,Net-(BTN-UP1-Pin_1)*%
X170180000Y-83566000D03*
%TO.P,ESP32-L1,3,Pin_3*%
%TO.N,Net-(ESP32-L1-Pin_3)*%
X172720000Y-83566000D03*
%TO.P,ESP32-L1,4,Pin_4*%
%TO.N,Net-(ESP32-L1-Pin_4)*%
X175260000Y-83566000D03*
%TO.P,ESP32-L1,5,Pin_5*%
%TO.N,Net-(ESP32-L1-Pin_5)*%
X177800000Y-83566000D03*
%TO.P,ESP32-L1,6,Pin_6*%
%TO.N,Net-(ESP32-L1-Pin_6)*%
X180340000Y-83566000D03*
%TO.P,ESP32-L1,7,Pin_7*%
%TO.N,Net-(ESP32-L1-Pin_7)*%
X182880000Y-83566000D03*
%TO.P,ESP32-L1,8,Pin_8*%
%TO.N,Net-(ESP32-L1-Pin_8)*%
X185420000Y-83566000D03*
%TO.P,ESP32-L1,9,Pin_9*%
%TO.N,Net-(ESP32-L1-Pin_9)*%
X187960000Y-83566000D03*
%TO.P,ESP32-L1,10,Pin_10*%
%TO.N,Net-(ESP32-L1-Pin_10)*%
X190500000Y-83566000D03*
%TO.P,ESP32-L1,11,Pin_11*%
%TO.N,Net-(ESP32-L1-Pin_11)*%
X193040000Y-83566000D03*
%TO.P,ESP32-L1,12,Pin_12*%
%TO.N,Net-(ESP32-L1-Pin_12)*%
X195580000Y-83566000D03*
%TO.P,ESP32-L1,13,Pin_13*%
%TO.N,Net-(ESP32-L1-Pin_13)*%
X198120000Y-83566000D03*
%TO.P,ESP32-L1,14,Pin_14*%
%TO.N,GND*%
X200660000Y-83566000D03*
%TO.P,ESP32-L1,15,Pin_15*%
%TO.N,Net-(ESP32-L1-Pin_15)*%
X203200000Y-83566000D03*
%TD*%
D10*
%TO.P,J4,1,Pin_1*%
%TO.N,Net-(ESP32-R1-Pin_11)*%
X183896000Y-102819200D03*
%TD*%
D12*
%TO.P,J19,1,Pin_1*%
%TO.N,Net-(ESP32-L1-Pin_7)*%
X148336000Y-102819200D03*
%TD*%
D13*
%TO.P,JGND1,1,Pin_1*%
%TO.N,GND*%
X90678000Y-128016000D03*
%TD*%
D12*
%TO.P,J15,1,Pin_1*%
%TO.N,Net-(ESP32-R1-Pin_13)*%
X189001400Y-102681400D03*
%TD*%
D10*
%TO.P,J39,1,Pin_1*%
%TO.N,Net-(ESP32-L1-Pin_3)*%
X112776000Y-102819200D03*
%TD*%
%TO.P,J33,1,Pin_1*%
%TO.N,Net-(ESP32-L1-Pin_5)*%
X143256000Y-102819200D03*
%TD*%
D20*
%TO.N,GND*%
X141732000Y-61214000D03*
X101092000Y-73914000D03*
%TO.N,Net-(BTN-MODE1-Pin_1)*%
X219964000Y-107442000D03*
X217758000Y-112950000D03*
X219964000Y-58674000D03*
X196596000Y-54356000D03*
%TO.N,Net-(BTN-UP1-Pin_1)*%
X107188000Y-88646000D03*
X116078000Y-88646000D03*
%TO.N,Net-(ESP32-L1-Pin_5)*%
X165608000Y-90932000D03*
X177800000Y-87630000D03*
%TO.N,Net-(ESP32-L1-Pin_15)*%
X146304000Y-54102000D03*
X150876000Y-56896000D03*
%TO.N,Net-(ESP32-L1-Pin_13)*%
X157226000Y-70358000D03*
X197866000Y-78740000D03*
%TO.N,Net-(ESP32-L1-Pin_8)*%
X161544000Y-95504000D03*
X187706000Y-93218000D03*
%TO.N,Net-(ESP32-L1-Pin_12)*%
X195580000Y-78994000D03*
X156972000Y-72644000D03*
%TO.N,Net-(ESP32-L1-Pin_6)*%
X90170000Y-69088000D03*
X180086000Y-79502000D03*
%TO.N,Net-(ESP32-L1-Pin_7)*%
X182880000Y-87376000D03*
X161544000Y-93980000D03*
%TO.N,Net-(ESP32-L1-Pin_11)*%
X193040000Y-78994000D03*
X156464000Y-75184000D03*
%TO.N,Net-(ESP32-L1-Pin_9)*%
X187198000Y-96774000D03*
X168148000Y-96774000D03*
%TO.N,Net-(ESP32-R1-Pin_15)*%
X150876000Y-51816000D03*
X144780000Y-51816000D03*
%TO.N,Net-(ESP32-R1-Pin_13)*%
X200152000Y-65024000D03*
X213106000Y-88392000D03*
X210312000Y-66548000D03*
X201422000Y-94996000D03*
%TO.N,Net-(ESP32-R1-Pin_10)*%
X210058000Y-85598000D03*
X198882000Y-69596000D03*
X180086000Y-94488000D03*
X210058000Y-74930000D03*
%TO.N,Net-(ESP32-R1-Pin_9)*%
X199136000Y-72390000D03*
X185420000Y-89154000D03*
X208280000Y-85344000D03*
X208280000Y-75946000D03*
%TO.N,Net-(ESP32-R1-Pin_11)*%
X199136000Y-93726000D03*
X209550000Y-67818000D03*
X211836000Y-87122000D03*
X199644000Y-66548000D03*
%TO.N,Net-(LED1-A)*%
X97790000Y-94996000D03*
X150368000Y-97536000D03*
%TO.N,Net-(ESP32-R1-Pin_8)*%
X206756000Y-76708000D03*
X212598000Y-94996000D03*
X176022000Y-98298000D03*
X199136000Y-74168000D03*
%TO.N,Net-(ESP32-R1-Pin_7)*%
X129794000Y-96012000D03*
X159258000Y-82550000D03*
%TO.N,Net-(ESP32-R1-Pin_6)*%
X149352000Y-94742000D03*
X118618000Y-98806000D03*
X146812000Y-98806000D03*
X156210000Y-83566000D03*
%TO.N,Net-(ESP32-R1-Pin_5)*%
X185166000Y-68072000D03*
X162560000Y-81534000D03*
X137922000Y-90678000D03*
X177800000Y-68072000D03*
%TO.N,Net-(ESP32-L1-Pin_3)*%
X172466000Y-80264000D03*
X126492000Y-91440000D03*
%TD*%
D21*
%TO.N,GND*%
X105410000Y-61214000D02*
X113792000Y-61214000D01*
X141732000Y-61214000D02*
X113792000Y-61214000D01*
X105410000Y-61214000D02*
X105410000Y-69596000D01*
X105410000Y-69596000D02*
X101092000Y-73914000D01*
D22*
%TO.N,Net-(BTN-MODE1-Pin_1)*%
X219456000Y-110490000D02*
X219964000Y-109982000D01*
X196596000Y-54356000D02*
X215646000Y-54356000D01*
X219964000Y-109982000D02*
X219964000Y-107442000D01*
X219456000Y-111252000D02*
X219456000Y-110490000D01*
X215646000Y-54356000D02*
X219964000Y-58674000D01*
X217758000Y-112950000D02*
X219456000Y-111252000D01*
%TO.N,Net-(BTN-UP1-Pin_1)*%
X107188000Y-88646000D02*
X116078000Y-88646000D01*
%TO.N,Net-(ESP32-L1-Pin_5)*%
X174498000Y-90932000D02*
X165608000Y-90932000D01*
X177800000Y-87630000D02*
X174498000Y-90932000D01*
D23*
%TO.N,Net-(ESP32-L1-Pin_15)*%
X146304000Y-54102000D02*
X149098000Y-56896000D01*
X149098000Y-56896000D02*
X150876000Y-56896000D01*
D22*
%TO.N,Net-(ESP32-L1-Pin_13)*%
X193294000Y-69850000D02*
X197866000Y-74422000D01*
X157226000Y-70358000D02*
X157734000Y-69850000D01*
X197866000Y-74422000D02*
X197866000Y-78740000D01*
X157734000Y-69850000D02*
X193294000Y-69850000D01*
%TO.N,Net-(ESP32-L1-Pin_8)*%
X185420000Y-95504000D02*
X161544000Y-95504000D01*
X187706000Y-93218000D02*
X185420000Y-95504000D01*
%TO.N,Net-(ESP32-L1-Pin_12)*%
X192532000Y-72644000D02*
X195580000Y-75692000D01*
X195580000Y-75692000D02*
X195580000Y-78994000D01*
X156972000Y-72644000D02*
X192532000Y-72644000D01*
%TO.N,Net-(ESP32-L1-Pin_6)*%
X178816000Y-78232000D02*
X99314000Y-78232000D01*
X180086000Y-79502000D02*
X178816000Y-78232000D01*
X99314000Y-78232000D02*
X90170000Y-69088000D01*
%TO.N,Net-(ESP32-L1-Pin_7)*%
X182880000Y-87376000D02*
X182880000Y-88138000D01*
X177038000Y-93980000D02*
X161544000Y-93980000D01*
X182880000Y-88138000D02*
X177038000Y-93980000D01*
%TO.N,Net-(ESP32-L1-Pin_11)*%
X193040000Y-76962000D02*
X193040000Y-78994000D01*
X156464000Y-75184000D02*
X191262000Y-75184000D01*
X191262000Y-75184000D02*
X193040000Y-76962000D01*
%TO.N,Net-(ESP32-L1-Pin_9)*%
X187198000Y-96774000D02*
X168148000Y-96774000D01*
%TO.N,Net-(ESP32-R1-Pin_15)*%
X144780000Y-51816000D02*
X150876000Y-51816000D01*
%TO.N,Net-(ESP32-R1-Pin_13)*%
X210820000Y-90678000D02*
X206502000Y-94996000D01*
X213106000Y-88392000D02*
X210820000Y-90678000D01*
X208788000Y-65024000D02*
X210312000Y-66548000D01*
X206502000Y-94996000D02*
X201422000Y-94996000D01*
X200152000Y-65024000D02*
X208788000Y-65024000D01*
%TO.N,Net-(ESP32-R1-Pin_10)*%
X180086000Y-94488000D02*
X184150000Y-90424000D01*
X204724000Y-69596000D02*
X198882000Y-69596000D01*
X205232000Y-90424000D02*
X210058000Y-85598000D01*
X210058000Y-74930000D02*
X204724000Y-69596000D01*
X184150000Y-90424000D02*
X205232000Y-90424000D01*
%TO.N,Net-(ESP32-R1-Pin_9)*%
X204470000Y-89154000D02*
X185420000Y-89154000D01*
X208280000Y-85344000D02*
X204470000Y-89154000D01*
X208280000Y-75946000D02*
X204724000Y-72390000D01*
X204724000Y-72390000D02*
X199136000Y-72390000D01*
%TO.N,Net-(ESP32-R1-Pin_11)*%
X208280000Y-66548000D02*
X199644000Y-66548000D01*
X205232000Y-93726000D02*
X211836000Y-87122000D01*
X199136000Y-93726000D02*
X205232000Y-93726000D01*
X209550000Y-67818000D02*
X208280000Y-66548000D01*
%TO.N,Net-(LED1-A)*%
X150368000Y-97536000D02*
X100330000Y-97536000D01*
X100330000Y-97536000D02*
X97790000Y-94996000D01*
%TO.N,Net-(ESP32-R1-Pin_8)*%
X212598000Y-94996000D02*
X209296000Y-98298000D01*
X203200000Y-74168000D02*
X205740000Y-76708000D01*
X199136000Y-74168000D02*
X203200000Y-74168000D01*
X205740000Y-76708000D02*
X206756000Y-76708000D01*
X209296000Y-98298000D02*
X176022000Y-98298000D01*
%TO.N,Net-(ESP32-R1-Pin_7)*%
X147574000Y-96012000D02*
X129794000Y-96012000D01*
X159258000Y-82550000D02*
X151638000Y-82550000D01*
X148082000Y-95504000D02*
X147574000Y-96012000D01*
X148082000Y-86106000D02*
X148082000Y-95504000D01*
X151638000Y-82550000D02*
X148082000Y-86106000D01*
%TO.N,Net-(ESP32-R1-Pin_6)*%
X156210000Y-83566000D02*
X152654000Y-83566000D01*
X118618000Y-98806000D02*
X146812000Y-98806000D01*
X152654000Y-83566000D02*
X150114000Y-86106000D01*
X150114000Y-86106000D02*
X150114000Y-93980000D01*
X150114000Y-93980000D02*
X149352000Y-94742000D01*
%TO.N,Net-(ESP32-R1-Pin_5)*%
X143002000Y-81788000D02*
X143256000Y-81534000D01*
X137922000Y-86868000D02*
X143002000Y-81788000D01*
X143256000Y-81534000D02*
X162560000Y-81534000D01*
X137922000Y-90678000D02*
X137922000Y-86868000D01*
X177800000Y-68072000D02*
X185166000Y-68072000D01*
%TO.N,Net-(ESP32-L1-Pin_3)*%
X126492000Y-91440000D02*
X126492000Y-80010000D01*
X126492000Y-80010000D02*
X172212000Y-80010000D01*
X172212000Y-80010000D02*
X172466000Y-80264000D01*
%TD*%
M02*
