%TF.GenerationSoftware,KiCad,Pcbnew,9.0.6*%
%TF.CreationDate,2026-03-21T19:45:09+01:00*%
%TF.ProjectId,Stylophone,5374796c-6f70-4686-9f6e-652e6b696361,rev?*%
%TF.SameCoordinates,Original*%
%TF.FileFunction,Copper,L1,Top*%
%TF.FilePolarity,Positive*%
%FSLAX46Y46*%
G04 Gerber Fmt 4.6, Leading zero omitted, Abs format (unit mm)*
G04 Created by KiCad (PCBNEW 9.0.6) date 2026-03-21 19:45:09*
%MOMM*%
%LPD*%
G01*
G04 APERTURE LIST*
G04 Aperture macros list*
%AMRoundRect*
0 Rectangle with rounded corners*
0 $1 Rounding radius*
0 $2 $3 $4 $5 $6 $7 $8 $9 X,Y pos of 4 corners*
0 Add a 4 corners polygon primitive as box body*
4,1,4,$2,$3,$4,$5,$6,$7,$8,$9,$2,$3,0*
0 Add four circle primitives for the rounded corners*
1,1,$1+$1,$2,$3*
1,1,$1+$1,$4,$5*
1,1,$1+$1,$6,$7*
1,1,$1+$1,$8,$9*
0 Add four rect primitives between the rounded corners*
20,1,$1+$1,$2,$3,$4,$5,0*
20,1,$1+$1,$4,$5,$6,$7,0*
20,1,$1+$1,$6,$7,$8,$9,0*
20,1,$1+$1,$8,$9,$2,$3,0*%
G04 Aperture macros list end*
%TA.AperFunction,EtchedComponent*%
%ADD10C,2.000000*%
%TD*%
%TA.AperFunction,EtchedComponent*%
%ADD11C,5.000000*%
%TD*%
%TA.AperFunction,EtchedComponent*%
%ADD12C,0.200000*%
%TD*%
%TA.AperFunction,EtchedComponent*%
%ADD13C,4.000000*%
%TD*%
%TA.AperFunction,ComponentPad*%
%ADD14RoundRect,0.285750X-0.666750X-0.714250X0.666750X-0.714250X0.666750X0.714250X-0.666750X0.714250X0*%
%TD*%
%TA.AperFunction,ComponentPad*%
%ADD15C,1.600000*%
%TD*%
%TA.AperFunction,ComponentPad*%
%ADD16RoundRect,0.190500X-0.762000X-0.444500X0.762000X-0.444500X0.762000X0.444500X-0.762000X0.444500X0*%
%TD*%
%TA.AperFunction,ComponentPad*%
%ADD17R,1.700000X1.700000*%
%TD*%
%TA.AperFunction,ComponentPad*%
%ADD18C,1.700000*%
%TD*%
%TA.AperFunction,WasherPad*%
%ADD19RoundRect,0.190500X-0.762000X-0.444500X0.762000X-0.444500X0.762000X0.444500X-0.762000X0.444500X0*%
%TD*%
%TA.AperFunction,ComponentPad*%
%ADD20R,3.000000X3.000000*%
%TD*%
%TA.AperFunction,ComponentPad*%
%ADD21C,3.000000*%
%TD*%
%TA.AperFunction,ComponentPad*%
%ADD22R,1.800000X1.800000*%
%TD*%
%TA.AperFunction,ComponentPad*%
%ADD23C,1.800000*%
%TD*%
%TA.AperFunction,ViaPad*%
%ADD24C,0.600000*%
%TD*%
%TA.AperFunction,Conductor*%
%ADD25C,1.000000*%
%TD*%
%TA.AperFunction,Conductor*%
%ADD26C,0.200000*%
%TD*%
%TA.AperFunction,Conductor*%
%ADD27C,0.400000*%
%TD*%
G04 APERTURE END LIST*
D10*
%TO.C,J22*%
X119126000Y-131368800D02*
X119126000Y-119938800D01*
D11*
X121412000Y-121462800D02*
X121412000Y-129082800D01*
D12*
X121412000Y-129082800D02*
X124714000Y-129082800D01*
D10*
X122936000Y-116128800D02*
X122936000Y-104698800D01*
D11*
X124714000Y-129082800D02*
X123444000Y-121462800D01*
D10*
X126669800Y-131368800D02*
X119202200Y-131368800D01*
X126746000Y-119938800D02*
X126746000Y-131368800D01*
X122936000Y-116128800D02*
G75*
G02*
X119126000Y-119938800I-3809999J-1D01*
G01*
X126746001Y-119938799D02*
G75*
G02*
X122936001Y-116128799I-1J3809999D01*
G01*
%TO.C,J25*%
X125666166Y-102828800D02*
X126174166Y-102828800D01*
X125666166Y-114304525D02*
X125666166Y-102920800D01*
X126174166Y-104444800D02*
X129730166Y-104444800D01*
X126682166Y-115620800D02*
X129730166Y-115620800D01*
X127025066Y-104190800D02*
X126682166Y-115620800D01*
X127952166Y-114350454D02*
X128206166Y-105206800D01*
X129730166Y-102828800D02*
X130238166Y-102828800D01*
X129730166Y-115620800D02*
X129476166Y-103936800D01*
X130238166Y-102828800D02*
X130238166Y-114396383D01*
X130238376Y-114316564D02*
G75*
G02*
X125666166Y-114304525I-2286210J-33890D01*
G01*
%TO.C,J26*%
X115506166Y-102828800D02*
X116014166Y-102828800D01*
X115506166Y-114304525D02*
X115506166Y-102920800D01*
X116014166Y-104444800D02*
X119570166Y-104444800D01*
X116522166Y-115620800D02*
X119570166Y-115620800D01*
X116865066Y-104190800D02*
X116522166Y-115620800D01*
X117792166Y-114350454D02*
X118046166Y-105206800D01*
X119570166Y-102828800D02*
X120078166Y-102828800D01*
X119570166Y-115620800D02*
X119316166Y-103936800D01*
X120078166Y-102828800D02*
X120078166Y-114396383D01*
X120078376Y-114316564D02*
G75*
G02*
X115506166Y-114304525I-2286210J-33890D01*
G01*
%TO.C,J21*%
X149606000Y-131368800D02*
X149606000Y-119938800D01*
D11*
X151892000Y-121462800D02*
X151892000Y-129082800D01*
D12*
X151892000Y-129082800D02*
X155194000Y-129082800D01*
D10*
X153416000Y-116128800D02*
X153416000Y-104698800D01*
D11*
X155194000Y-129082800D02*
X153924000Y-121462800D01*
D10*
X157149800Y-131368800D02*
X149682200Y-131368800D01*
X157226000Y-119938800D02*
X157226000Y-131368800D01*
X153416000Y-116128800D02*
G75*
G02*
X149606000Y-119938800I-3809999J-1D01*
G01*
X157226001Y-119938799D02*
G75*
G02*
X153416001Y-116128799I-1J3809999D01*
G01*
%TO.C,J17*%
X156210000Y-102691000D02*
X156718000Y-102691000D01*
X156210000Y-114166725D02*
X156210000Y-102783000D01*
X156718000Y-104307000D02*
X160274000Y-104307000D01*
X157226000Y-115483000D02*
X160274000Y-115483000D01*
X157568900Y-104053000D02*
X157226000Y-115483000D01*
X158496000Y-114212654D02*
X158750000Y-105069000D01*
X160274000Y-102691000D02*
X160782000Y-102691000D01*
X160274000Y-115483000D02*
X160020000Y-103799000D01*
X160782000Y-102691000D02*
X160782000Y-114258583D01*
X160782210Y-114178764D02*
G75*
G02*
X156210000Y-114166725I-2286210J-33890D01*
G01*
%TO.C,J5*%
X166370000Y-102691000D02*
X166878000Y-102691000D01*
X166370000Y-114166725D02*
X166370000Y-102783000D01*
X166878000Y-104307000D02*
X170434000Y-104307000D01*
X167386000Y-115483000D02*
X170434000Y-115483000D01*
X167728900Y-104053000D02*
X167386000Y-115483000D01*
X168656000Y-114212654D02*
X168910000Y-105069000D01*
X170434000Y-102691000D02*
X170942000Y-102691000D01*
X170434000Y-115483000D02*
X170180000Y-103799000D01*
X170942000Y-102691000D02*
X170942000Y-114258583D01*
X170942210Y-114178764D02*
G75*
G02*
X166370000Y-114166725I-2286210J-33890D01*
G01*
%TO.C,J18*%
X159766000Y-131368800D02*
X159766000Y-119938800D01*
D11*
X162052000Y-121462800D02*
X162052000Y-129082800D01*
D12*
X162052000Y-129082800D02*
X165354000Y-129082800D01*
D10*
X163576000Y-116128800D02*
X163576000Y-104698800D01*
D11*
X165354000Y-129082800D02*
X164084000Y-121462800D01*
D10*
X167309800Y-131368800D02*
X159842200Y-131368800D01*
X167386000Y-119938800D02*
X167386000Y-131368800D01*
X163576000Y-116128800D02*
G75*
G02*
X159766000Y-119938800I-3809999J-1D01*
G01*
X167386001Y-119938799D02*
G75*
G02*
X163576001Y-116128799I-1J3809999D01*
G01*
%TO.C,J16*%
X169926000Y-131368800D02*
X169926000Y-119938800D01*
D13*
X172466000Y-130098800D02*
X172212000Y-120954800D01*
D10*
X173736000Y-116128800D02*
X173736000Y-104444800D01*
D13*
X176022000Y-104952800D02*
X175006000Y-130098800D01*
D10*
X177469800Y-131368800D02*
X170002200Y-131368800D01*
X177546000Y-102819200D02*
X175514000Y-102819200D01*
X177546000Y-102819200D02*
X177546000Y-131368800D01*
X173736000Y-116128800D02*
G75*
G02*
X169926000Y-119938800I-3809999J-1D01*
G01*
%TO.C,J27*%
X190246000Y-131368800D02*
X190246000Y-119938800D01*
D13*
X192786000Y-130098800D02*
X192532000Y-120954800D01*
D10*
X194056000Y-116128800D02*
X194056000Y-104444800D01*
D13*
X196342000Y-104952800D02*
X195326000Y-130098800D01*
D10*
X197789800Y-131368800D02*
X190322200Y-131368800D01*
X197866000Y-102819200D02*
X195834000Y-102819200D01*
X197866000Y-102819200D02*
X197866000Y-131368800D01*
X194056000Y-116128800D02*
G75*
G02*
X190246000Y-119938800I-3809999J-1D01*
G01*
%TO.C,J32*%
X129286000Y-131368800D02*
X129286000Y-119938800D01*
D13*
X131826000Y-130098800D02*
X131572000Y-120954800D01*
D10*
X133096000Y-116128800D02*
X133096000Y-104444800D01*
D13*
X135382000Y-104952800D02*
X134366000Y-130098800D01*
D10*
X136829800Y-131368800D02*
X129362200Y-131368800D01*
X136906000Y-102819200D02*
X134874000Y-102819200D01*
X136906000Y-102819200D02*
X136906000Y-131368800D01*
X133096000Y-116128800D02*
G75*
G02*
X129286000Y-119938800I-3809999J-1D01*
G01*
%TO.C,J4*%
X180086000Y-102828800D02*
X182118000Y-102828800D01*
X180086000Y-131368800D02*
X180086000Y-102828800D01*
D13*
X181610000Y-104698800D02*
X182626000Y-129844800D01*
D10*
X183896000Y-116128800D02*
X183896000Y-104444800D01*
D13*
X185166000Y-129844800D02*
X185011924Y-120446800D01*
D10*
X187629800Y-131368800D02*
X180162200Y-131368800D01*
X187706000Y-119938800D02*
X187706000Y-131368800D01*
X187706001Y-119938799D02*
G75*
G02*
X183896001Y-116128799I-1J3809999D01*
G01*
%TO.C,J19*%
X146024600Y-102828800D02*
X146532600Y-102828800D01*
X146024600Y-114304525D02*
X146024600Y-102920800D01*
X146532600Y-104444800D02*
X150088600Y-104444800D01*
X147040600Y-115620800D02*
X150088600Y-115620800D01*
X147383500Y-104190800D02*
X147040600Y-115620800D01*
X148310600Y-114350454D02*
X148564600Y-105206800D01*
X150088600Y-102828800D02*
X150596600Y-102828800D01*
X150088600Y-115620800D02*
X149834600Y-103936800D01*
X150596600Y-102828800D02*
X150596600Y-114396383D01*
X150596810Y-114316564D02*
G75*
G02*
X146024600Y-114304525I-2286210J-33890D01*
G01*
%TO.C,J15*%
X186690000Y-102691000D02*
X187198000Y-102691000D01*
X186690000Y-114166725D02*
X186690000Y-102783000D01*
X187198000Y-104307000D02*
X190754000Y-104307000D01*
X187706000Y-115483000D02*
X190754000Y-115483000D01*
X188048900Y-104053000D02*
X187706000Y-115483000D01*
X188976000Y-114212654D02*
X189230000Y-105069000D01*
X190754000Y-102691000D02*
X191262000Y-102691000D01*
X190754000Y-115483000D02*
X190500000Y-103799000D01*
X191262000Y-102691000D02*
X191262000Y-114258583D01*
X191262210Y-114178764D02*
G75*
G02*
X186690000Y-114166725I-2286210J-33890D01*
G01*
%TO.C,J39*%
X108966000Y-102828800D02*
X110998000Y-102828800D01*
X108966000Y-131368800D02*
X108966000Y-102828800D01*
D13*
X110490000Y-104698800D02*
X111506000Y-129844800D01*
D10*
X112776000Y-116128800D02*
X112776000Y-104444800D01*
D13*
X114046000Y-129844800D02*
X113891924Y-120446800D01*
D10*
X116509800Y-131368800D02*
X109042200Y-131368800D01*
X116586000Y-119938800D02*
X116586000Y-131368800D01*
X116586001Y-119938799D02*
G75*
G02*
X112776001Y-116128799I-1J3809999D01*
G01*
%TO.C,J33*%
X139446000Y-102828800D02*
X141478000Y-102828800D01*
X139446000Y-131368800D02*
X139446000Y-102828800D01*
D13*
X140970000Y-104698800D02*
X141986000Y-129844800D01*
D10*
X143256000Y-116128800D02*
X143256000Y-104444800D01*
D13*
X144526000Y-129844800D02*
X144371924Y-120446800D01*
D10*
X146989800Y-131368800D02*
X139522200Y-131368800D01*
X147066000Y-119938800D02*
X147066000Y-131368800D01*
X147066001Y-119938799D02*
G75*
G02*
X143256001Y-116128799I-1J3809999D01*
G01*
%TD*%
D14*
%TO.P,J22,1,Pin_1*%
%TO.N,Net-(ESP32-R1-Pin_5)*%
X122936000Y-102819200D03*
%TD*%
D15*
%TO.P,R4,1*%
%TO.N,Net-(ESP32-R1-Pin_15)*%
X110490000Y-92964000D03*
%TO.P,R4,2*%
%TO.N,Net-(BTN-UP1-Pin_1)*%
X102870000Y-92964000D03*
%TD*%
%TO.P,R2,1*%
%TO.N,Net-(ESP32-R1-Pin_15)*%
X132334000Y-85852000D03*
%TO.P,R2,2*%
%TO.N,Net-(ESP32-L1-Pin_4)*%
X132334000Y-93472000D03*
%TD*%
D16*
%TO.P,J25,1,Pin_1*%
%TO.N,Net-(ESP32-R1-Pin_7)*%
X127977566Y-102819200D03*
%TD*%
D17*
%TO.P,BTN-MODE2,1,Pin_1*%
%TO.N,GND*%
X215646000Y-107950000D03*
%TD*%
D15*
%TO.P,R3,1*%
%TO.N,Net-(ESP32-R1-Pin_15)*%
X143764000Y-85852000D03*
%TO.P,R3,2*%
%TO.N,Net-(ESP32-L1-Pin_5)*%
X143764000Y-93472000D03*
%TD*%
D17*
%TO.P,ESP32-R1,1,Pin_1*%
%TO.N,Net-(ESP32-R1-Pin_1)*%
X167640000Y-58166000D03*
D18*
%TO.P,ESP32-R1,2,Pin_2*%
%TO.N,Net-(BTN-MODE1-Pin_1)*%
X170180000Y-58166000D03*
%TO.P,ESP32-R1,3,Pin_3*%
%TO.N,unconnected-(ESP32-R1-Pin_3-Pad3)*%
X172720000Y-58166000D03*
%TO.P,ESP32-R1,4,Pin_4*%
%TO.N,unconnected-(ESP32-R1-Pin_4-Pad4)*%
X175260000Y-58166000D03*
%TO.P,ESP32-R1,5,Pin_5*%
%TO.N,Net-(ESP32-R1-Pin_5)*%
X177800000Y-58166000D03*
%TO.P,ESP32-R1,6,Pin_6*%
%TO.N,Net-(ESP32-R1-Pin_6)*%
X180340000Y-58166000D03*
%TO.P,ESP32-R1,7,Pin_7*%
%TO.N,Net-(ESP32-R1-Pin_7)*%
X182880000Y-58166000D03*
%TO.P,ESP32-R1,8,Pin_8*%
%TO.N,Net-(ESP32-R1-Pin_8)*%
X185420000Y-58166000D03*
%TO.P,ESP32-R1,9,Pin_9*%
%TO.N,Net-(ESP32-R1-Pin_9)*%
X187960000Y-58166000D03*
%TO.P,ESP32-R1,10,Pin_10*%
%TO.N,Net-(ESP32-R1-Pin_10)*%
X190500000Y-58166000D03*
%TO.P,ESP32-R1,11,Pin_11*%
%TO.N,Net-(ESP32-R1-Pin_11)*%
X193040000Y-58166000D03*
%TO.P,ESP32-R1,12,Pin_12*%
%TO.N,unconnected-(ESP32-R1-Pin_12-Pad12)*%
X195580000Y-58166000D03*
%TO.P,ESP32-R1,13,Pin_13*%
%TO.N,Net-(ESP32-R1-Pin_13)*%
X198120000Y-58166000D03*
%TO.P,ESP32-R1,14,Pin_14*%
%TO.N,GND*%
X200660000Y-58166000D03*
%TO.P,ESP32-R1,15,Pin_15*%
%TO.N,Net-(ESP32-R1-Pin_15)*%
X203200000Y-58166000D03*
%TD*%
D16*
%TO.P,J26,1,Pin_1*%
%TO.N,Net-(ESP32-R1-Pin_6)*%
X117817566Y-102819200D03*
%TD*%
D15*
%TO.P,R1,1*%
%TO.N,Net-(ESP32-R1-Pin_1)*%
X154686000Y-85598000D03*
%TO.P,R1,2*%
%TO.N,Net-(LED1-A)*%
X154686000Y-93218000D03*
%TD*%
D17*
%TO.P,BTN-UP1,1,Pin_1*%
%TO.N,Net-(BTN-UP1-Pin_1)*%
X90424000Y-112950000D03*
%TD*%
D15*
%TO.P,R5,1*%
%TO.N,Net-(ESP32-R1-Pin_15)*%
X122428000Y-85598000D03*
%TO.P,R5,2*%
%TO.N,Net-(ESP32-L1-Pin_3)*%
X122428000Y-93218000D03*
%TD*%
D14*
%TO.P,J21,1,Pin_1*%
%TO.N,Net-(ESP32-L1-Pin_8)*%
X153416000Y-102819200D03*
%TD*%
D16*
%TO.P,J17,1,Pin_1*%
%TO.N,Net-(ESP32-R1-Pin_9)*%
X158521400Y-102681400D03*
%TD*%
%TO.P,J5,1,Pin_1*%
%TO.N,Net-(ESP32-R1-Pin_8)*%
X168681400Y-102681400D03*
%TD*%
D19*
%TO.P,REF\u002A\u002A,*%
%TO.N,*%
X95538000Y-69088000D03*
X131538000Y-69088000D03*
%TD*%
D17*
%TO.P,JGND2,1,Pin_1*%
%TO.N,GND*%
X215646000Y-128016000D03*
%TD*%
D14*
%TO.P,J18,1,Pin_1*%
%TO.N,Net-(ESP32-L1-Pin_9)*%
X163576000Y-102819200D03*
%TD*%
%TO.P,J16,1,Pin_1*%
%TO.N,Net-(ESP32-R1-Pin_10)*%
X173736000Y-102819200D03*
%TD*%
%TO.P,J27,1,Pin_1*%
%TO.N,Net-(ESP32-L1-Pin_10)*%
X194056000Y-102819200D03*
%TD*%
%TO.P,J32,1,Pin_1*%
%TO.N,Net-(ESP32-L1-Pin_4)*%
X133096000Y-102819200D03*
%TD*%
D17*
%TO.P,SND1,1,Pin_1*%
%TO.N,Net-(ESP32-L1-Pin_15)*%
X152400000Y-60452000D03*
D18*
%TO.P,SND1,2,Pin_2*%
%TO.N,GND*%
X152400000Y-62992000D03*
%TO.P,SND1,3,Pin_3*%
%TO.N,unconnected-(SND1-Pin_3-Pad3)*%
X152400000Y-65532000D03*
%TO.P,SND1,4,Pin_4*%
%TO.N,unconnected-(SND1-Pin_4-Pad4)*%
X152400000Y-68072000D03*
%TO.P,SND1,5,Pin_5*%
%TO.N,Net-(ESP32-L1-Pin_13)*%
X152400000Y-70612000D03*
%TO.P,SND1,6,Pin_6*%
%TO.N,Net-(ESP32-L1-Pin_12)*%
X152400000Y-73152000D03*
%TO.P,SND1,7,Pin_7*%
%TO.N,Net-(ESP32-L1-Pin_11)*%
X152400000Y-75692000D03*
%TD*%
D17*
%TO.P,BTN-MODE1,1,Pin_1*%
%TO.N,Net-(BTN-MODE1-Pin_1)*%
X215646000Y-112950000D03*
%TD*%
D20*
%TO.P,RV1,1,1*%
%TO.N,Net-(ESP32-R1-Pin_15)*%
X85090000Y-64008000D03*
D21*
%TO.P,RV1,2,2*%
%TO.N,Net-(ESP32-L1-Pin_6)*%
X85090000Y-69008000D03*
%TO.P,RV1,3,3*%
%TO.N,GND*%
X85090000Y-74008000D03*
%TD*%
D22*
%TO.P,LED1,1,K*%
%TO.N,GND*%
X90678000Y-95504000D03*
D23*
%TO.P,LED1,2,A*%
%TO.N,Net-(LED1-A)*%
X90678000Y-92964000D03*
%TD*%
D17*
%TO.P,BTN-UP2,1,Pin_1*%
%TO.N,GND*%
X90424000Y-107950000D03*
%TD*%
%TO.P,ESP32-L1,1,Pin_1*%
%TO.N,unconnected-(ESP32-L1-Pin_1-Pad1)*%
X167640000Y-83566000D03*
D18*
%TO.P,ESP32-L1,2,Pin_2*%
%TO.N,Net-(BTN-UP1-Pin_1)*%
X170180000Y-83566000D03*
%TO.P,ESP32-L1,3,Pin_3*%
%TO.N,Net-(ESP32-L1-Pin_3)*%
X172720000Y-83566000D03*
%TO.P,ESP32-L1,4,Pin_4*%
%TO.N,Net-(ESP32-L1-Pin_4)*%
X175260000Y-83566000D03*
%TO.P,ESP32-L1,5,Pin_5*%
%TO.N,Net-(ESP32-L1-Pin_5)*%
X177800000Y-83566000D03*
%TO.P,ESP32-L1,6,Pin_6*%
%TO.N,Net-(ESP32-L1-Pin_6)*%
X180340000Y-83566000D03*
%TO.P,ESP32-L1,7,Pin_7*%
%TO.N,Net-(ESP32-L1-Pin_7)*%
X182880000Y-83566000D03*
%TO.P,ESP32-L1,8,Pin_8*%
%TO.N,Net-(ESP32-L1-Pin_8)*%
X185420000Y-83566000D03*
%TO.P,ESP32-L1,9,Pin_9*%
%TO.N,Net-(ESP32-L1-Pin_9)*%
X187960000Y-83566000D03*
%TO.P,ESP32-L1,10,Pin_10*%
%TO.N,Net-(ESP32-L1-Pin_10)*%
X190500000Y-83566000D03*
%TO.P,ESP32-L1,11,Pin_11*%
%TO.N,Net-(ESP32-L1-Pin_11)*%
X193040000Y-83566000D03*
%TO.P,ESP32-L1,12,Pin_12*%
%TO.N,Net-(ESP32-L1-Pin_12)*%
X195580000Y-83566000D03*
%TO.P,ESP32-L1,13,Pin_13*%
%TO.N,Net-(ESP32-L1-Pin_13)*%
X198120000Y-83566000D03*
%TO.P,ESP32-L1,14,Pin_14*%
%TO.N,GND*%
X200660000Y-83566000D03*
%TO.P,ESP32-L1,15,Pin_15*%
%TO.N,Net-(ESP32-L1-Pin_15)*%
X203200000Y-83566000D03*
%TD*%
D14*
%TO.P,J4,1,Pin_1*%
%TO.N,Net-(ESP32-R1-Pin_11)*%
X183896000Y-102819200D03*
%TD*%
D16*
%TO.P,J19,1,Pin_1*%
%TO.N,Net-(ESP32-L1-Pin_7)*%
X148336000Y-102819200D03*
%TD*%
D17*
%TO.P,JGND1,1,Pin_1*%
%TO.N,GND*%
X90678000Y-128016000D03*
%TD*%
D16*
%TO.P,J15,1,Pin_1*%
%TO.N,Net-(ESP32-R1-Pin_13)*%
X189001400Y-102681400D03*
%TD*%
D14*
%TO.P,J39,1,Pin_1*%
%TO.N,Net-(ESP32-L1-Pin_3)*%
X112776000Y-102819200D03*
%TD*%
%TO.P,J33,1,Pin_1*%
%TO.N,Net-(ESP32-L1-Pin_5)*%
X143256000Y-102819200D03*
%TD*%
D24*
%TO.N,GND*%
X141732000Y-61214000D03*
X101092000Y-73914000D03*
%TO.N,Net-(BTN-MODE1-Pin_1)*%
X219964000Y-107442000D03*
X217758000Y-112950000D03*
X219964000Y-58674000D03*
X196596000Y-54356000D03*
%TO.N,Net-(BTN-UP1-Pin_1)*%
X107188000Y-88646000D03*
X116078000Y-88646000D03*
%TO.N,Net-(ESP32-L1-Pin_5)*%
X165608000Y-90932000D03*
X177800000Y-87630000D03*
%TO.N,Net-(ESP32-L1-Pin_15)*%
X146304000Y-54102000D03*
X150876000Y-56896000D03*
%TO.N,Net-(ESP32-L1-Pin_13)*%
X157226000Y-70358000D03*
X197866000Y-78740000D03*
%TO.N,Net-(ESP32-L1-Pin_8)*%
X161544000Y-95504000D03*
X187706000Y-93218000D03*
%TO.N,Net-(ESP32-L1-Pin_12)*%
X195580000Y-78994000D03*
X156972000Y-72644000D03*
%TO.N,Net-(ESP32-L1-Pin_6)*%
X90170000Y-69088000D03*
X180086000Y-79502000D03*
%TO.N,Net-(ESP32-L1-Pin_7)*%
X182880000Y-87376000D03*
X161544000Y-93980000D03*
%TO.N,Net-(ESP32-L1-Pin_11)*%
X193040000Y-78994000D03*
X156464000Y-75184000D03*
%TO.N,Net-(ESP32-L1-Pin_9)*%
X187198000Y-96774000D03*
X168148000Y-96774000D03*
%TO.N,Net-(ESP32-R1-Pin_15)*%
X150876000Y-51816000D03*
X144780000Y-51816000D03*
%TO.N,Net-(ESP32-R1-Pin_13)*%
X200152000Y-65024000D03*
X213106000Y-88392000D03*
X210312000Y-66548000D03*
X201422000Y-94996000D03*
%TO.N,Net-(ESP32-R1-Pin_10)*%
X210058000Y-85598000D03*
X198882000Y-69596000D03*
X180086000Y-94488000D03*
X210058000Y-74930000D03*
%TO.N,Net-(ESP32-R1-Pin_9)*%
X199136000Y-72390000D03*
X185420000Y-89154000D03*
X208280000Y-85344000D03*
X208280000Y-75946000D03*
%TO.N,Net-(ESP32-R1-Pin_11)*%
X199136000Y-93726000D03*
X209550000Y-67818000D03*
X211836000Y-87122000D03*
X199644000Y-66548000D03*
%TO.N,Net-(LED1-A)*%
X97790000Y-94996000D03*
X150368000Y-97536000D03*
%TO.N,Net-(ESP32-R1-Pin_8)*%
X206756000Y-76708000D03*
X212598000Y-94996000D03*
X176022000Y-98298000D03*
X199136000Y-74168000D03*
%TO.N,Net-(ESP32-R1-Pin_7)*%
X129794000Y-96012000D03*
X159258000Y-82550000D03*
%TO.N,Net-(ESP32-R1-Pin_6)*%
X149352000Y-94742000D03*
X118618000Y-98806000D03*
X146812000Y-98806000D03*
X156210000Y-83566000D03*
%TO.N,Net-(ESP32-R1-Pin_5)*%
X185166000Y-68072000D03*
X162560000Y-81534000D03*
X137922000Y-90678000D03*
X177800000Y-68072000D03*
%TO.N,Net-(ESP32-L1-Pin_3)*%
X172466000Y-80264000D03*
X126492000Y-91440000D03*
%TD*%
D25*
%TO.N,GND*%
X200660000Y-87376000D02*
X207010000Y-93726000D01*
X93218000Y-74008000D02*
X85090000Y-74008000D01*
X84836000Y-95504000D02*
X84836000Y-108204000D01*
D26*
X90424000Y-107950000D02*
X85090000Y-107950000D01*
D25*
X148844000Y-61214000D02*
X148844000Y-54610000D01*
X200660000Y-60960000D02*
X200660000Y-58166000D01*
X84836000Y-124714000D02*
X88138000Y-128016000D01*
X200660000Y-55118000D02*
X200660000Y-58166000D01*
X200660000Y-83566000D02*
X200660000Y-87376000D01*
X219964000Y-125730000D02*
X217678000Y-128016000D01*
X100998000Y-74008000D02*
X93218000Y-74008000D01*
X217678000Y-128016000D02*
X215646000Y-128016000D01*
X148844000Y-54610000D02*
X150368000Y-53086000D01*
X207010000Y-93726000D02*
X209804000Y-93726000D01*
D26*
X101092000Y-73914000D02*
X100998000Y-74008000D01*
D25*
X148844000Y-61214000D02*
X145796000Y-61214000D01*
X212344000Y-107950000D02*
X215646000Y-107950000D01*
D26*
X148844000Y-61214000D02*
X148844000Y-61468000D01*
X203200000Y-73152000D02*
X203200000Y-72898000D01*
D25*
X150368000Y-62992000D02*
X152400000Y-62992000D01*
X145796000Y-61214000D02*
X141732000Y-61214000D01*
X203200000Y-72898000D02*
X200660000Y-75438000D01*
X93218000Y-74008000D02*
X93218000Y-79248000D01*
X93218000Y-79248000D02*
X87630000Y-84836000D01*
D26*
X85090000Y-107950000D02*
X84836000Y-108204000D01*
D25*
X217424000Y-107950000D02*
X219964000Y-110490000D01*
X88138000Y-128016000D02*
X90678000Y-128016000D01*
X198628000Y-53086000D02*
X200660000Y-55118000D01*
X219964000Y-110490000D02*
X219964000Y-125730000D01*
X203200000Y-72898000D02*
X203200000Y-63500000D01*
X215646000Y-107950000D02*
X217424000Y-107950000D01*
X84836000Y-84836000D02*
X84836000Y-95504000D01*
X87630000Y-84836000D02*
X84836000Y-84836000D01*
X150368000Y-53086000D02*
X198628000Y-53086000D01*
D26*
X90678000Y-95504000D02*
X84836000Y-95504000D01*
D25*
X209804000Y-105410000D02*
X212344000Y-107950000D01*
X200660000Y-75438000D02*
X200660000Y-83566000D01*
X203200000Y-63500000D02*
X200660000Y-60960000D01*
X209804000Y-93726000D02*
X209804000Y-105410000D01*
X84836000Y-108204000D02*
X84836000Y-124714000D01*
X148844000Y-61468000D02*
X150368000Y-62992000D01*
D26*
%TO.N,Net-(BTN-MODE1-Pin_1)*%
X219964000Y-58674000D02*
X219964000Y-107442000D01*
X217758000Y-112950000D02*
X215646000Y-112950000D01*
X196596000Y-54356000D02*
X171704000Y-54356000D01*
X170180000Y-55880000D02*
X170180000Y-58166000D01*
X171704000Y-54356000D02*
X170180000Y-55880000D01*
%TO.N,Net-(BTN-UP1-Pin_1)*%
X97028000Y-98806000D02*
X102870000Y-92964000D01*
X166116000Y-87630000D02*
X117094000Y-87630000D01*
X117094000Y-87630000D02*
X116078000Y-88646000D01*
X107188000Y-88646000D02*
X104648000Y-88646000D01*
X170180000Y-83566000D02*
X166116000Y-87630000D01*
X96440000Y-112950000D02*
X90424000Y-112950000D01*
X96440000Y-112950000D02*
X96456500Y-112966500D01*
X96456500Y-112966500D02*
X97028000Y-112395000D01*
X97028000Y-112395000D02*
X97028000Y-98806000D01*
X104648000Y-88646000D02*
X102870000Y-90424000D01*
X102870000Y-90424000D02*
X102870000Y-92964000D01*
%TO.N,Net-(ESP32-L1-Pin_5)*%
X147828000Y-93472000D02*
X143764000Y-93472000D01*
X143256000Y-102819200D02*
X143256000Y-93980000D01*
X143256000Y-93980000D02*
X143764000Y-93472000D01*
X150368000Y-90932000D02*
X147828000Y-93472000D01*
X165608000Y-90932000D02*
X150368000Y-90932000D01*
X177800000Y-83566000D02*
X177800000Y-87630000D01*
D27*
%TO.N,Net-(ESP32-L1-Pin_15)*%
X152400000Y-58166000D02*
X152400000Y-60452000D01*
X149352000Y-50800000D02*
X200914000Y-50800000D01*
D26*
X146304000Y-54102000D02*
X146304000Y-53848000D01*
D27*
X207518000Y-71628000D02*
X203200000Y-75946000D01*
X200914000Y-50800000D02*
X207518000Y-57404000D01*
X146304000Y-53848000D02*
X149352000Y-50800000D01*
X203200000Y-75946000D02*
X203200000Y-83566000D01*
X151130000Y-56896000D02*
X152400000Y-58166000D01*
D26*
X150876000Y-56896000D02*
X151130000Y-56896000D01*
D27*
X207518000Y-57404000D02*
X207518000Y-71628000D01*
D26*
%TO.N,Net-(ESP32-L1-Pin_13)*%
X156972000Y-70612000D02*
X157226000Y-70358000D01*
X152400000Y-70612000D02*
X156972000Y-70612000D01*
X197866000Y-78740000D02*
X198120000Y-78994000D01*
X198120000Y-78994000D02*
X198120000Y-83566000D01*
%TO.N,Net-(ESP32-L1-Pin_8)*%
X161544000Y-95504000D02*
X160782000Y-95504000D01*
X156464000Y-98298000D02*
X157988000Y-98298000D01*
X185420000Y-83566000D02*
X185420000Y-86360000D01*
X185674000Y-86614000D02*
X187706000Y-88646000D01*
X153416000Y-102819200D02*
X153416000Y-101346000D01*
X185420000Y-86360000D02*
X185674000Y-86614000D01*
X153416000Y-101346000D02*
X156464000Y-98298000D01*
X160782000Y-95504000D02*
X157988000Y-98298000D01*
X187706000Y-88646000D02*
X187706000Y-93218000D01*
%TO.N,Net-(ESP32-L1-Pin_12)*%
X195580000Y-78994000D02*
X195580000Y-83566000D01*
X152400000Y-73152000D02*
X156464000Y-73152000D01*
X156464000Y-73152000D02*
X156972000Y-72644000D01*
%TO.N,Net-(ESP32-L1-Pin_6)*%
X85090000Y-69008000D02*
X90090000Y-69008000D01*
X180340000Y-79756000D02*
X180086000Y-79502000D01*
X180340000Y-83566000D02*
X180340000Y-79756000D01*
X90090000Y-69008000D02*
X90170000Y-69088000D01*
%TO.N,Net-(ESP32-L1-Pin_7)*%
X148336000Y-100076000D02*
X149098000Y-99314000D01*
X157988000Y-93980000D02*
X161544000Y-93980000D01*
X149098000Y-99314000D02*
X152654000Y-99314000D01*
X152654000Y-99314000D02*
X157988000Y-93980000D01*
X148336000Y-102819200D02*
X148336000Y-100076000D01*
X182880000Y-83566000D02*
X182880000Y-87376000D01*
%TO.N,Net-(ESP32-L1-Pin_11)*%
X155956000Y-75692000D02*
X156464000Y-75184000D01*
X152400000Y-75692000D02*
X155956000Y-75692000D01*
X193040000Y-78994000D02*
X193040000Y-83566000D01*
%TO.N,Net-(ESP32-L1-Pin_9)*%
X191008000Y-92964000D02*
X187198000Y-96774000D01*
X191008000Y-89408000D02*
X191008000Y-92964000D01*
X187960000Y-86360000D02*
X191008000Y-89408000D01*
X168148000Y-96774000D02*
X163576000Y-101346000D01*
X163576000Y-101346000D02*
X163576000Y-102819200D01*
X187960000Y-83566000D02*
X187960000Y-86360000D01*
%TO.N,Net-(ESP32-L1-Pin_10)*%
X199136000Y-88392000D02*
X192786000Y-88392000D01*
X204216000Y-96774000D02*
X204216000Y-93472000D01*
X190500000Y-83566000D02*
X190500000Y-86106000D01*
X194056000Y-101346000D02*
X196596000Y-98806000D01*
X196596000Y-98806000D02*
X202184000Y-98806000D01*
X204216000Y-93472000D02*
X199136000Y-88392000D01*
X194056000Y-102819200D02*
X194056000Y-101346000D01*
X202184000Y-98806000D02*
X204216000Y-96774000D01*
X192786000Y-88392000D02*
X190500000Y-86106000D01*
%TO.N,Net-(ESP32-L1-Pin_4)*%
X133096000Y-102819200D02*
X133096000Y-93726000D01*
X144018000Y-89408000D02*
X139954000Y-93472000D01*
X169672000Y-87122000D02*
X167386000Y-89408000D01*
X167386000Y-89408000D02*
X144018000Y-89408000D01*
X174498000Y-87122000D02*
X169672000Y-87122000D01*
X133096000Y-93726000D02*
X133350000Y-93472000D01*
X175260000Y-86360000D02*
X174498000Y-87122000D01*
X175260000Y-83566000D02*
X175260000Y-86360000D01*
X133350000Y-93472000D02*
X132334000Y-93472000D01*
X139954000Y-93472000D02*
X137668000Y-93472000D01*
X137668000Y-93472000D02*
X133350000Y-93472000D01*
%TO.N,Net-(ESP32-R1-Pin_15)*%
X138684000Y-57150000D02*
X138684000Y-80772000D01*
X122682000Y-80772000D02*
X132334000Y-80772000D01*
X150876000Y-51816000D02*
X199898000Y-51816000D01*
X100838000Y-64008000D02*
X106680000Y-69850000D01*
X85090000Y-64008000D02*
X100838000Y-64008000D01*
X144018000Y-51816000D02*
X138684000Y-57150000D01*
X122428000Y-81026000D02*
X122682000Y-80772000D01*
X132334000Y-85852000D02*
X132334000Y-80772000D01*
X122428000Y-85598000D02*
X122428000Y-81026000D01*
X199898000Y-51816000D02*
X203200000Y-55118000D01*
X106680000Y-69850000D02*
X106680000Y-77724000D01*
X106680000Y-77724000D02*
X109728000Y-80772000D01*
X110617000Y-80772000D02*
X122682000Y-80772000D01*
X132334000Y-80772000D02*
X143764000Y-80772000D01*
X138684000Y-80772000D02*
X143764000Y-80772000D01*
X109728000Y-80772000D02*
X110617000Y-80772000D01*
X110490000Y-92964000D02*
X110490000Y-80772000D01*
X144780000Y-51816000D02*
X144018000Y-51816000D01*
X143764000Y-80772000D02*
X143764000Y-85852000D01*
X203200000Y-55118000D02*
X203200000Y-58166000D01*
%TO.N,Net-(ESP32-R1-Pin_13)*%
X195072000Y-94996000D02*
X201422000Y-94996000D01*
X200152000Y-65024000D02*
X198120000Y-62992000D01*
X198120000Y-62992000D02*
X198120000Y-58166000D01*
X210312000Y-66548000D02*
X213106000Y-69342000D01*
X188976000Y-101092000D02*
X195072000Y-94996000D01*
X189001400Y-101117400D02*
X188976000Y-101092000D01*
X189001400Y-102681400D02*
X189001400Y-101117400D01*
X213106000Y-69342000D02*
X213106000Y-88392000D01*
%TO.N,Net-(ESP32-R1-Pin_10)*%
X196596000Y-69596000D02*
X190500000Y-63500000D01*
X179578000Y-99822000D02*
X175733200Y-99822000D01*
X179578000Y-94996000D02*
X179578000Y-99822000D01*
X175733200Y-99822000D02*
X173736000Y-101819200D01*
X180086000Y-94488000D02*
X179578000Y-94996000D01*
X210058000Y-74930000D02*
X210058000Y-85598000D01*
X190500000Y-63500000D02*
X190500000Y-58166000D01*
X198882000Y-69596000D02*
X196596000Y-69596000D01*
X173736000Y-101819200D02*
X173736000Y-102819200D01*
%TO.N,Net-(ESP32-R1-Pin_9)*%
X185420000Y-89154000D02*
X170688000Y-89154000D01*
X187960000Y-58166000D02*
X187960000Y-63246000D01*
X158521400Y-101320600D02*
X163068000Y-96774000D01*
X170688000Y-89154000D02*
X163068000Y-96774000D01*
X187960000Y-63246000D02*
X197104000Y-72390000D01*
X208280000Y-85344000D02*
X208280000Y-75946000D01*
X197104000Y-72390000D02*
X199136000Y-72390000D01*
X158521400Y-102681400D02*
X158521400Y-101320600D01*
%TO.N,Net-(ESP32-R1-Pin_1)*%
X160274000Y-61976000D02*
X160274000Y-76962000D01*
X164084000Y-58166000D02*
X160274000Y-61976000D01*
X167640000Y-58166000D02*
X164084000Y-58166000D01*
X154686000Y-82550000D02*
X154686000Y-85598000D01*
X160274000Y-76962000D02*
X154686000Y-82550000D01*
%TO.N,Net-(ESP32-R1-Pin_11)*%
X193040000Y-62230000D02*
X197358000Y-66548000D01*
X183896000Y-102362000D02*
X192532000Y-93726000D01*
X183896000Y-102819200D02*
X183896000Y-102362000D01*
X197358000Y-66548000D02*
X199644000Y-66548000D01*
X211836000Y-70104000D02*
X209550000Y-67818000D01*
X211836000Y-87122000D02*
X211836000Y-70104000D01*
X193040000Y-58166000D02*
X193040000Y-62230000D01*
X192532000Y-93726000D02*
X199136000Y-93726000D01*
%TO.N,Net-(LED1-A)*%
X97790000Y-94996000D02*
X95758000Y-92964000D01*
X150368000Y-97536000D02*
X154686000Y-93218000D01*
X95758000Y-92964000D02*
X90678000Y-92964000D01*
%TO.N,Net-(ESP32-R1-Pin_8)*%
X212598000Y-94234000D02*
X212598000Y-94996000D01*
X171958000Y-98298000D02*
X176022000Y-98298000D01*
X168681400Y-101574600D02*
X171958000Y-98298000D01*
X195961000Y-74168000D02*
X199136000Y-74168000D01*
X206756000Y-76708000D02*
X206756000Y-88392000D01*
X206756000Y-88392000D02*
X212598000Y-94234000D01*
X168681400Y-102681400D02*
X168681400Y-101574600D01*
X185420000Y-63627000D02*
X195961000Y-74168000D01*
X185420000Y-58166000D02*
X185420000Y-63627000D01*
%TO.N,Net-(ESP32-R1-Pin_7)*%
X159258000Y-82550000D02*
X165100000Y-76708000D01*
X129794000Y-96012000D02*
X127977566Y-97828434D01*
X165100000Y-76708000D02*
X176276000Y-76708000D01*
X176276000Y-76708000D02*
X182880000Y-70104000D01*
X182880000Y-70104000D02*
X182880000Y-58166000D01*
X127977566Y-97828434D02*
X127977566Y-102819200D01*
%TO.N,Net-(ESP32-R1-Pin_6)*%
X149352000Y-96266000D02*
X146812000Y-98806000D01*
X149352000Y-94742000D02*
X149352000Y-96266000D01*
X164211000Y-75184000D02*
X156210000Y-83185000D01*
X180340000Y-58166000D02*
X180340000Y-70104000D01*
X180340000Y-70104000D02*
X175260000Y-75184000D01*
X156210000Y-83185000D02*
X156210000Y-83566000D01*
X118618000Y-98806000D02*
X117817566Y-99606434D01*
X117817566Y-99606434D02*
X117817566Y-102819200D01*
X175260000Y-75184000D02*
X164211000Y-75184000D01*
%TO.N,Net-(ESP32-R1-Pin_5)*%
X129032000Y-92456000D02*
X130048000Y-91440000D01*
X137160000Y-91440000D02*
X137922000Y-90678000D01*
X185166000Y-71374000D02*
X179070000Y-77470000D01*
X130048000Y-91440000D02*
X137160000Y-91440000D01*
X185166000Y-68072000D02*
X185166000Y-71374000D01*
X129032000Y-93980000D02*
X129032000Y-92456000D01*
X166624000Y-77470000D02*
X162560000Y-81534000D01*
X122936000Y-102819200D02*
X122936000Y-100076000D01*
X179070000Y-77470000D02*
X166624000Y-77470000D01*
X177800000Y-68072000D02*
X177800000Y-58166000D01*
X122936000Y-100076000D02*
X129032000Y-93980000D01*
%TO.N,Net-(ESP32-L1-Pin_3)*%
X172720000Y-80518000D02*
X172466000Y-80264000D01*
X113538000Y-95250000D02*
X122428000Y-95250000D01*
X125730000Y-92202000D02*
X125730000Y-95250000D01*
X172720000Y-83566000D02*
X172720000Y-80518000D01*
X122428000Y-95250000D02*
X122428000Y-93218000D01*
X112776000Y-102819200D02*
X112776000Y-96012000D01*
X126492000Y-91440000D02*
X125730000Y-92202000D01*
X125730000Y-95250000D02*
X122428000Y-95250000D01*
X112776000Y-96012000D02*
X113538000Y-95250000D01*
%TD*%
M02*
