%TF.GenerationSoftware,KiCad,Pcbnew,9.0.6*%
%TF.CreationDate,2026-03-21T19:45:09+01:00*%
%TF.ProjectId,Stylophone,5374796c-6f70-4686-9f6e-652e6b696361,rev?*%
%TF.SameCoordinates,Original*%
%TF.FileFunction,Soldermask,Bot*%
%TF.FilePolarity,Negative*%
%FSLAX46Y46*%
G04 Gerber Fmt 4.6, Leading zero omitted, Abs format (unit mm)*
G04 Created by KiCad (PCBNEW 9.0.6) date 2026-03-21 19:45:09*
%MOMM*%
%LPD*%
G01*
G04 APERTURE LIST*
G04 Aperture macros list*
%AMRoundRect*
0 Rectangle with rounded corners*
0 $1 Rounding radius*
0 $2 $3 $4 $5 $6 $7 $8 $9 X,Y pos of 4 corners*
0 Add a 4 corners polygon primitive as box body*
4,1,4,$2,$3,$4,$5,$6,$7,$8,$9,$2,$3,0*
0 Add four circle primitives for the rounded corners*
1,1,$1+$1,$2,$3*
1,1,$1+$1,$4,$5*
1,1,$1+$1,$6,$7*
1,1,$1+$1,$8,$9*
0 Add four rect primitives between the rounded corners*
20,1,$1+$1,$2,$3,$4,$5,0*
20,1,$1+$1,$4,$5,$6,$7,0*
20,1,$1+$1,$6,$7,$8,$9,0*
20,1,$1+$1,$8,$9,$2,$3,0*%
G04 Aperture macros list end*
%ADD10RoundRect,0.285750X-0.666750X-0.714250X0.666750X-0.714250X0.666750X0.714250X-0.666750X0.714250X0*%
%ADD11C,1.600000*%
%ADD12C,3.200000*%
%ADD13RoundRect,0.190500X-0.762000X-0.444500X0.762000X-0.444500X0.762000X0.444500X-0.762000X0.444500X0*%
%ADD14R,1.700000X1.700000*%
%ADD15C,1.700000*%
%ADD16R,3.000000X3.000000*%
%ADD17C,3.000000*%
%ADD18R,1.800000X1.800000*%
%ADD19C,1.800000*%
G04 APERTURE END LIST*
D10*
%TO.C,J22*%
X122936000Y-102819200D03*
%TD*%
D11*
%TO.C,R4*%
X110490000Y-92964000D03*
X102870000Y-92964000D03*
%TD*%
D12*
%TO.C,*%
X221488000Y-52578000D03*
%TD*%
D11*
%TO.C,R2*%
X132334000Y-85852000D03*
X132334000Y-93472000D03*
%TD*%
D13*
%TO.C,J25*%
X127977566Y-102819200D03*
%TD*%
D14*
%TO.C,BTN-MODE2*%
X215646000Y-107950000D03*
%TD*%
D12*
%TO.C,*%
X221488000Y-132842000D03*
%TD*%
D11*
%TO.C,R3*%
X143764000Y-85852000D03*
X143764000Y-93472000D03*
%TD*%
D14*
%TO.C,ESP32-R1*%
X167640000Y-58166000D03*
D15*
X170180000Y-58166000D03*
X172720000Y-58166000D03*
X175260000Y-58166000D03*
X177800000Y-58166000D03*
X180340000Y-58166000D03*
X182880000Y-58166000D03*
X185420000Y-58166000D03*
X187960000Y-58166000D03*
X190500000Y-58166000D03*
X193040000Y-58166000D03*
X195580000Y-58166000D03*
X198120000Y-58166000D03*
X200660000Y-58166000D03*
X203200000Y-58166000D03*
%TD*%
D12*
%TO.C,*%
X84582000Y-132842000D03*
%TD*%
D13*
%TO.C,J26*%
X117817566Y-102819200D03*
%TD*%
D11*
%TO.C,R1*%
X154686000Y-85598000D03*
X154686000Y-93218000D03*
%TD*%
D14*
%TO.C,BTN-UP1*%
X90424000Y-112950000D03*
%TD*%
D11*
%TO.C,R5*%
X122428000Y-85598000D03*
X122428000Y-93218000D03*
%TD*%
D10*
%TO.C,J21*%
X153416000Y-102819200D03*
%TD*%
D13*
%TO.C,J17*%
X158521400Y-102681400D03*
%TD*%
%TO.C,J5*%
X168681400Y-102681400D03*
%TD*%
%TO.C,REF\u002A\u002A*%
X95538000Y-69088000D03*
X131538000Y-69088000D03*
%TD*%
D14*
%TO.C,JGND2*%
X215646000Y-128016000D03*
%TD*%
D10*
%TO.C,J18*%
X163576000Y-102819200D03*
%TD*%
%TO.C,J16*%
X173736000Y-102819200D03*
%TD*%
%TO.C,J27*%
X194056000Y-102819200D03*
%TD*%
%TO.C,J32*%
X133096000Y-102819200D03*
%TD*%
D14*
%TO.C,SND1*%
X152400000Y-60452000D03*
D15*
X152400000Y-62992000D03*
X152400000Y-65532000D03*
X152400000Y-68072000D03*
X152400000Y-70612000D03*
X152400000Y-73152000D03*
X152400000Y-75692000D03*
%TD*%
D14*
%TO.C,BTN-MODE1*%
X215646000Y-112950000D03*
%TD*%
D16*
%TO.C,RV1*%
X85090000Y-64008000D03*
D17*
X85090000Y-69008000D03*
X85090000Y-74008000D03*
%TD*%
D18*
%TO.C,LED1*%
X90678000Y-95504000D03*
D19*
X90678000Y-92964000D03*
%TD*%
D14*
%TO.C,BTN-UP2*%
X90424000Y-107950000D03*
%TD*%
%TO.C,ESP32-L1*%
X167640000Y-83566000D03*
D15*
X170180000Y-83566000D03*
X172720000Y-83566000D03*
X175260000Y-83566000D03*
X177800000Y-83566000D03*
X180340000Y-83566000D03*
X182880000Y-83566000D03*
X185420000Y-83566000D03*
X187960000Y-83566000D03*
X190500000Y-83566000D03*
X193040000Y-83566000D03*
X195580000Y-83566000D03*
X198120000Y-83566000D03*
X200660000Y-83566000D03*
X203200000Y-83566000D03*
%TD*%
D10*
%TO.C,J4*%
X183896000Y-102819200D03*
%TD*%
D13*
%TO.C,J19*%
X148336000Y-102819200D03*
%TD*%
D14*
%TO.C,JGND1*%
X90678000Y-128016000D03*
%TD*%
D12*
%TO.C,REF\u002A\u002A*%
X84582000Y-52578000D03*
%TD*%
D13*
%TO.C,J15*%
X189001400Y-102681400D03*
%TD*%
D10*
%TO.C,J39*%
X112776000Y-102819200D03*
%TD*%
%TO.C,J33*%
X143256000Y-102819200D03*
%TD*%
M02*
