%TF.GenerationSoftware,KiCad,Pcbnew,9.0.6*%
%TF.CreationDate,2026-03-21T19:45:07+01:00*%
%TF.ProjectId,Stylophone,5374796c-6f70-4686-9f6e-652e6b696361,rev?*%
%TF.SameCoordinates,Original*%
%TF.FileFunction,Plated,1,2,PTH,Drill*%
%TF.FilePolarity,Positive*%
%FSLAX46Y46*%
G04 Gerber Fmt 4.6, Leading zero omitted, Abs format (unit mm)*
G04 Created by KiCad (PCBNEW 9.0.6) date 2026-03-21 19:45:07*
%MOMM*%
%LPD*%
G01*
G04 APERTURE LIST*
%TA.AperFunction,ViaDrill*%
%ADD10C,0.300000*%
%TD*%
%TA.AperFunction,ComponentDrill*%
%ADD11C,0.800000*%
%TD*%
%TA.AperFunction,ComponentDrill*%
%ADD12C,0.900000*%
%TD*%
%TA.AperFunction,ComponentDrill*%
%ADD13C,1.000000*%
%TD*%
%TA.AperFunction,ComponentDrill*%
%ADD14C,1.200000*%
%TD*%
G04 APERTURE END LIST*
D10*
X90170000Y-69088000D03*
X97790000Y-94996000D03*
X101092000Y-73914000D03*
X107188000Y-88646000D03*
X116078000Y-88646000D03*
X118618000Y-98806000D03*
X126492000Y-91440000D03*
X129794000Y-96012000D03*
X137922000Y-90678000D03*
X141732000Y-61214000D03*
X144780000Y-51816000D03*
X146304000Y-54102000D03*
X146812000Y-98806000D03*
X149352000Y-94742000D03*
X150368000Y-97536000D03*
X150876000Y-51816000D03*
X150876000Y-56896000D03*
X156210000Y-83566000D03*
X156464000Y-75184000D03*
X156972000Y-72644000D03*
X157226000Y-70358000D03*
X159258000Y-82550000D03*
X161544000Y-93980000D03*
X161544000Y-95504000D03*
X162560000Y-81534000D03*
X165608000Y-90932000D03*
X168148000Y-96774000D03*
X172466000Y-80264000D03*
X176022000Y-98298000D03*
X177800000Y-68072000D03*
X177800000Y-87630000D03*
X180086000Y-79502000D03*
X180086000Y-94488000D03*
X182880000Y-87376000D03*
X185166000Y-68072000D03*
X185420000Y-89154000D03*
X187198000Y-96774000D03*
X187706000Y-93218000D03*
X193040000Y-78994000D03*
X195580000Y-78994000D03*
X196596000Y-54356000D03*
X197866000Y-78740000D03*
X198882000Y-69596000D03*
X199136000Y-72390000D03*
X199136000Y-74168000D03*
X199136000Y-93726000D03*
X199644000Y-66548000D03*
X200152000Y-65024000D03*
X201422000Y-94996000D03*
X206756000Y-76708000D03*
X208280000Y-75946000D03*
X208280000Y-85344000D03*
X209550000Y-67818000D03*
X210058000Y-74930000D03*
X210058000Y-85598000D03*
X210312000Y-66548000D03*
X211836000Y-87122000D03*
X212598000Y-94996000D03*
X213106000Y-88392000D03*
X217758000Y-112950000D03*
X219964000Y-58674000D03*
X219964000Y-107442000D03*
D11*
%TO.C,R4*%
X102870000Y-92964000D03*
X110490000Y-92964000D03*
%TO.C,J39*%
X112776000Y-102819200D03*
%TO.C,J26*%
X117817566Y-102819200D03*
%TO.C,R5*%
X122428000Y-85598000D03*
X122428000Y-93218000D03*
%TO.C,J22*%
X122936000Y-102819200D03*
%TO.C,J25*%
X127977566Y-102819200D03*
%TO.C,R2*%
X132334000Y-85852000D03*
X132334000Y-93472000D03*
%TO.C,J32*%
X133096000Y-102819200D03*
%TO.C,J33*%
X143256000Y-102819200D03*
%TO.C,R3*%
X143764000Y-85852000D03*
X143764000Y-93472000D03*
%TO.C,J19*%
X148336000Y-102819200D03*
%TO.C,J21*%
X153416000Y-102819200D03*
%TO.C,R1*%
X154686000Y-85598000D03*
X154686000Y-93218000D03*
%TO.C,J17*%
X158521400Y-102681400D03*
%TO.C,J18*%
X163576000Y-102819200D03*
%TO.C,J5*%
X168681400Y-102681400D03*
%TO.C,J16*%
X173736000Y-102819200D03*
%TO.C,J4*%
X183896000Y-102819200D03*
%TO.C,J15*%
X189001400Y-102681400D03*
%TO.C,J27*%
X194056000Y-102819200D03*
D12*
%TO.C,LED1*%
X90678000Y-92964000D03*
X90678000Y-95504000D03*
D13*
%TO.C,BTN-UP2*%
X90424000Y-107950000D03*
%TO.C,BTN-UP1*%
X90424000Y-112950000D03*
%TO.C,JGND1*%
X90678000Y-128016000D03*
%TO.C,SND1*%
X152400000Y-60452000D03*
X152400000Y-62992000D03*
X152400000Y-65532000D03*
X152400000Y-68072000D03*
X152400000Y-70612000D03*
X152400000Y-73152000D03*
X152400000Y-75692000D03*
%TO.C,ESP32-R1*%
X167640000Y-58166000D03*
%TO.C,ESP32-L1*%
X167640000Y-83566000D03*
%TO.C,ESP32-R1*%
X170180000Y-58166000D03*
%TO.C,ESP32-L1*%
X170180000Y-83566000D03*
%TO.C,ESP32-R1*%
X172720000Y-58166000D03*
%TO.C,ESP32-L1*%
X172720000Y-83566000D03*
%TO.C,ESP32-R1*%
X175260000Y-58166000D03*
%TO.C,ESP32-L1*%
X175260000Y-83566000D03*
%TO.C,ESP32-R1*%
X177800000Y-58166000D03*
%TO.C,ESP32-L1*%
X177800000Y-83566000D03*
%TO.C,ESP32-R1*%
X180340000Y-58166000D03*
%TO.C,ESP32-L1*%
X180340000Y-83566000D03*
%TO.C,ESP32-R1*%
X182880000Y-58166000D03*
%TO.C,ESP32-L1*%
X182880000Y-83566000D03*
%TO.C,ESP32-R1*%
X185420000Y-58166000D03*
%TO.C,ESP32-L1*%
X185420000Y-83566000D03*
%TO.C,ESP32-R1*%
X187960000Y-58166000D03*
%TO.C,ESP32-L1*%
X187960000Y-83566000D03*
%TO.C,ESP32-R1*%
X190500000Y-58166000D03*
%TO.C,ESP32-L1*%
X190500000Y-83566000D03*
%TO.C,ESP32-R1*%
X193040000Y-58166000D03*
%TO.C,ESP32-L1*%
X193040000Y-83566000D03*
%TO.C,ESP32-R1*%
X195580000Y-58166000D03*
%TO.C,ESP32-L1*%
X195580000Y-83566000D03*
%TO.C,ESP32-R1*%
X198120000Y-58166000D03*
%TO.C,ESP32-L1*%
X198120000Y-83566000D03*
%TO.C,ESP32-R1*%
X200660000Y-58166000D03*
%TO.C,ESP32-L1*%
X200660000Y-83566000D03*
%TO.C,ESP32-R1*%
X203200000Y-58166000D03*
%TO.C,ESP32-L1*%
X203200000Y-83566000D03*
%TO.C,BTN-MODE2*%
X215646000Y-107950000D03*
%TO.C,BTN-MODE1*%
X215646000Y-112950000D03*
%TO.C,JGND2*%
X215646000Y-128016000D03*
D14*
%TO.C,RV1*%
X85090000Y-64008000D03*
X85090000Y-69008000D03*
X85090000Y-74008000D03*
M02*
