%TF.GenerationSoftware,KiCad,Pcbnew,9.0.6*%
%TF.CreationDate,2026-03-21T19:45:09+01:00*%
%TF.ProjectId,Stylophone,5374796c-6f70-4686-9f6e-652e6b696361,rev?*%
%TF.SameCoordinates,Original*%
%TF.FileFunction,Legend,Top*%
%TF.FilePolarity,Positive*%
%FSLAX46Y46*%
G04 Gerber Fmt 4.6, Leading zero omitted, Abs format (unit mm)*
G04 Created by KiCad (PCBNEW 9.0.6) date 2026-03-21 19:45:09*
%MOMM*%
%LPD*%
G01*
G04 APERTURE LIST*
%ADD10C,0.150000*%
%ADD11C,0.300000*%
%ADD12C,0.120000*%
%ADD13C,0.100000*%
G04 APERTURE END LIST*
D10*
X213950779Y-104771819D02*
X213950779Y-103771819D01*
X213950779Y-103771819D02*
X214284112Y-104486104D01*
X214284112Y-104486104D02*
X214617445Y-103771819D01*
X214617445Y-103771819D02*
X214617445Y-104771819D01*
X215284112Y-103771819D02*
X215474588Y-103771819D01*
X215474588Y-103771819D02*
X215569826Y-103819438D01*
X215569826Y-103819438D02*
X215665064Y-103914676D01*
X215665064Y-103914676D02*
X215712683Y-104105152D01*
X215712683Y-104105152D02*
X215712683Y-104438485D01*
X215712683Y-104438485D02*
X215665064Y-104628961D01*
X215665064Y-104628961D02*
X215569826Y-104724200D01*
X215569826Y-104724200D02*
X215474588Y-104771819D01*
X215474588Y-104771819D02*
X215284112Y-104771819D01*
X215284112Y-104771819D02*
X215188874Y-104724200D01*
X215188874Y-104724200D02*
X215093636Y-104628961D01*
X215093636Y-104628961D02*
X215046017Y-104438485D01*
X215046017Y-104438485D02*
X215046017Y-104105152D01*
X215046017Y-104105152D02*
X215093636Y-103914676D01*
X215093636Y-103914676D02*
X215188874Y-103819438D01*
X215188874Y-103819438D02*
X215284112Y-103771819D01*
X216141255Y-104771819D02*
X216141255Y-103771819D01*
X216141255Y-103771819D02*
X216379350Y-103771819D01*
X216379350Y-103771819D02*
X216522207Y-103819438D01*
X216522207Y-103819438D02*
X216617445Y-103914676D01*
X216617445Y-103914676D02*
X216665064Y-104009914D01*
X216665064Y-104009914D02*
X216712683Y-104200390D01*
X216712683Y-104200390D02*
X216712683Y-104343247D01*
X216712683Y-104343247D02*
X216665064Y-104533723D01*
X216665064Y-104533723D02*
X216617445Y-104628961D01*
X216617445Y-104628961D02*
X216522207Y-104724200D01*
X216522207Y-104724200D02*
X216379350Y-104771819D01*
X216379350Y-104771819D02*
X216141255Y-104771819D01*
X217141255Y-104248009D02*
X217474588Y-104248009D01*
X217617445Y-104771819D02*
X217141255Y-104771819D01*
X217141255Y-104771819D02*
X217141255Y-103771819D01*
X217141255Y-103771819D02*
X217617445Y-103771819D01*
D11*
X91486510Y-51339114D02*
X91986510Y-51339114D01*
X92200796Y-52124828D02*
X91486510Y-52124828D01*
X91486510Y-52124828D02*
X91486510Y-50624828D01*
X91486510Y-50624828D02*
X92200796Y-50624828D01*
X92772225Y-52053400D02*
X92986511Y-52124828D01*
X92986511Y-52124828D02*
X93343653Y-52124828D01*
X93343653Y-52124828D02*
X93486511Y-52053400D01*
X93486511Y-52053400D02*
X93557939Y-51981971D01*
X93557939Y-51981971D02*
X93629368Y-51839114D01*
X93629368Y-51839114D02*
X93629368Y-51696257D01*
X93629368Y-51696257D02*
X93557939Y-51553400D01*
X93557939Y-51553400D02*
X93486511Y-51481971D01*
X93486511Y-51481971D02*
X93343653Y-51410542D01*
X93343653Y-51410542D02*
X93057939Y-51339114D01*
X93057939Y-51339114D02*
X92915082Y-51267685D01*
X92915082Y-51267685D02*
X92843653Y-51196257D01*
X92843653Y-51196257D02*
X92772225Y-51053400D01*
X92772225Y-51053400D02*
X92772225Y-50910542D01*
X92772225Y-50910542D02*
X92843653Y-50767685D01*
X92843653Y-50767685D02*
X92915082Y-50696257D01*
X92915082Y-50696257D02*
X93057939Y-50624828D01*
X93057939Y-50624828D02*
X93415082Y-50624828D01*
X93415082Y-50624828D02*
X93629368Y-50696257D01*
X94272224Y-52124828D02*
X94272224Y-50624828D01*
X94272224Y-50624828D02*
X94843653Y-50624828D01*
X94843653Y-50624828D02*
X94986510Y-50696257D01*
X94986510Y-50696257D02*
X95057939Y-50767685D01*
X95057939Y-50767685D02*
X95129367Y-50910542D01*
X95129367Y-50910542D02*
X95129367Y-51124828D01*
X95129367Y-51124828D02*
X95057939Y-51267685D01*
X95057939Y-51267685D02*
X94986510Y-51339114D01*
X94986510Y-51339114D02*
X94843653Y-51410542D01*
X94843653Y-51410542D02*
X94272224Y-51410542D01*
X95700796Y-52053400D02*
X95915082Y-52124828D01*
X95915082Y-52124828D02*
X96272224Y-52124828D01*
X96272224Y-52124828D02*
X96415082Y-52053400D01*
X96415082Y-52053400D02*
X96486510Y-51981971D01*
X96486510Y-51981971D02*
X96557939Y-51839114D01*
X96557939Y-51839114D02*
X96557939Y-51696257D01*
X96557939Y-51696257D02*
X96486510Y-51553400D01*
X96486510Y-51553400D02*
X96415082Y-51481971D01*
X96415082Y-51481971D02*
X96272224Y-51410542D01*
X96272224Y-51410542D02*
X95986510Y-51339114D01*
X95986510Y-51339114D02*
X95843653Y-51267685D01*
X95843653Y-51267685D02*
X95772224Y-51196257D01*
X95772224Y-51196257D02*
X95700796Y-51053400D01*
X95700796Y-51053400D02*
X95700796Y-50910542D01*
X95700796Y-50910542D02*
X95772224Y-50767685D01*
X95772224Y-50767685D02*
X95843653Y-50696257D01*
X95843653Y-50696257D02*
X95986510Y-50624828D01*
X95986510Y-50624828D02*
X96343653Y-50624828D01*
X96343653Y-50624828D02*
X96557939Y-50696257D01*
X97057938Y-51124828D02*
X97415081Y-52124828D01*
X97772224Y-51124828D02*
X97415081Y-52124828D01*
X97415081Y-52124828D02*
X97272224Y-52481971D01*
X97272224Y-52481971D02*
X97200795Y-52553400D01*
X97200795Y-52553400D02*
X97057938Y-52624828D01*
X98343652Y-51124828D02*
X98343652Y-52124828D01*
X98343652Y-51267685D02*
X98415081Y-51196257D01*
X98415081Y-51196257D02*
X98557938Y-51124828D01*
X98557938Y-51124828D02*
X98772224Y-51124828D01*
X98772224Y-51124828D02*
X98915081Y-51196257D01*
X98915081Y-51196257D02*
X98986510Y-51339114D01*
X98986510Y-51339114D02*
X98986510Y-52124828D01*
X99486510Y-51124828D02*
X100057938Y-51124828D01*
X99700795Y-50624828D02*
X99700795Y-51910542D01*
X99700795Y-51910542D02*
X99772224Y-52053400D01*
X99772224Y-52053400D02*
X99915081Y-52124828D01*
X99915081Y-52124828D02*
X100057938Y-52124828D01*
X100557938Y-52124828D02*
X100557938Y-50624828D01*
X101200796Y-52124828D02*
X101200796Y-51339114D01*
X101200796Y-51339114D02*
X101129367Y-51196257D01*
X101129367Y-51196257D02*
X100986510Y-51124828D01*
X100986510Y-51124828D02*
X100772224Y-51124828D01*
X100772224Y-51124828D02*
X100629367Y-51196257D01*
X100629367Y-51196257D02*
X100557938Y-51267685D01*
X102486510Y-52053400D02*
X102343653Y-52124828D01*
X102343653Y-52124828D02*
X102057939Y-52124828D01*
X102057939Y-52124828D02*
X101915081Y-52053400D01*
X101915081Y-52053400D02*
X101843653Y-51910542D01*
X101843653Y-51910542D02*
X101843653Y-51339114D01*
X101843653Y-51339114D02*
X101915081Y-51196257D01*
X101915081Y-51196257D02*
X102057939Y-51124828D01*
X102057939Y-51124828D02*
X102343653Y-51124828D01*
X102343653Y-51124828D02*
X102486510Y-51196257D01*
X102486510Y-51196257D02*
X102557939Y-51339114D01*
X102557939Y-51339114D02*
X102557939Y-51481971D01*
X102557939Y-51481971D02*
X101843653Y-51624828D01*
X103129367Y-52053400D02*
X103272224Y-52124828D01*
X103272224Y-52124828D02*
X103557938Y-52124828D01*
X103557938Y-52124828D02*
X103700795Y-52053400D01*
X103700795Y-52053400D02*
X103772224Y-51910542D01*
X103772224Y-51910542D02*
X103772224Y-51839114D01*
X103772224Y-51839114D02*
X103700795Y-51696257D01*
X103700795Y-51696257D02*
X103557938Y-51624828D01*
X103557938Y-51624828D02*
X103343653Y-51624828D01*
X103343653Y-51624828D02*
X103200795Y-51553400D01*
X103200795Y-51553400D02*
X103129367Y-51410542D01*
X103129367Y-51410542D02*
X103129367Y-51339114D01*
X103129367Y-51339114D02*
X103200795Y-51196257D01*
X103200795Y-51196257D02*
X103343653Y-51124828D01*
X103343653Y-51124828D02*
X103557938Y-51124828D01*
X103557938Y-51124828D02*
X103700795Y-51196257D01*
X104415081Y-52124828D02*
X104415081Y-51124828D01*
X104415081Y-50624828D02*
X104343653Y-50696257D01*
X104343653Y-50696257D02*
X104415081Y-50767685D01*
X104415081Y-50767685D02*
X104486510Y-50696257D01*
X104486510Y-50696257D02*
X104415081Y-50624828D01*
X104415081Y-50624828D02*
X104415081Y-50767685D01*
X104986510Y-51124828D02*
X105772225Y-51124828D01*
X105772225Y-51124828D02*
X104986510Y-52124828D01*
X104986510Y-52124828D02*
X105772225Y-52124828D01*
X106915082Y-52053400D02*
X106772225Y-52124828D01*
X106772225Y-52124828D02*
X106486511Y-52124828D01*
X106486511Y-52124828D02*
X106343653Y-52053400D01*
X106343653Y-52053400D02*
X106272225Y-51910542D01*
X106272225Y-51910542D02*
X106272225Y-51339114D01*
X106272225Y-51339114D02*
X106343653Y-51196257D01*
X106343653Y-51196257D02*
X106486511Y-51124828D01*
X106486511Y-51124828D02*
X106772225Y-51124828D01*
X106772225Y-51124828D02*
X106915082Y-51196257D01*
X106915082Y-51196257D02*
X106986511Y-51339114D01*
X106986511Y-51339114D02*
X106986511Y-51481971D01*
X106986511Y-51481971D02*
X106272225Y-51624828D01*
X107629367Y-52124828D02*
X107629367Y-51124828D01*
X107629367Y-51410542D02*
X107700796Y-51267685D01*
X107700796Y-51267685D02*
X107772225Y-51196257D01*
X107772225Y-51196257D02*
X107915082Y-51124828D01*
X107915082Y-51124828D02*
X108057939Y-51124828D01*
X109557938Y-51124828D02*
X109915081Y-52124828D01*
X109915081Y-52124828D02*
X110272224Y-51124828D01*
X111129367Y-50624828D02*
X111272224Y-50624828D01*
X111272224Y-50624828D02*
X111415081Y-50696257D01*
X111415081Y-50696257D02*
X111486510Y-50767685D01*
X111486510Y-50767685D02*
X111557938Y-50910542D01*
X111557938Y-50910542D02*
X111629367Y-51196257D01*
X111629367Y-51196257D02*
X111629367Y-51553400D01*
X111629367Y-51553400D02*
X111557938Y-51839114D01*
X111557938Y-51839114D02*
X111486510Y-51981971D01*
X111486510Y-51981971D02*
X111415081Y-52053400D01*
X111415081Y-52053400D02*
X111272224Y-52124828D01*
X111272224Y-52124828D02*
X111129367Y-52124828D01*
X111129367Y-52124828D02*
X110986510Y-52053400D01*
X110986510Y-52053400D02*
X110915081Y-51981971D01*
X110915081Y-51981971D02*
X110843652Y-51839114D01*
X110843652Y-51839114D02*
X110772224Y-51553400D01*
X110772224Y-51553400D02*
X110772224Y-51196257D01*
X110772224Y-51196257D02*
X110843652Y-50910542D01*
X110843652Y-50910542D02*
X110915081Y-50767685D01*
X110915081Y-50767685D02*
X110986510Y-50696257D01*
X110986510Y-50696257D02*
X111129367Y-50624828D01*
X112272223Y-51981971D02*
X112343652Y-52053400D01*
X112343652Y-52053400D02*
X112272223Y-52124828D01*
X112272223Y-52124828D02*
X112200795Y-52053400D01*
X112200795Y-52053400D02*
X112272223Y-51981971D01*
X112272223Y-51981971D02*
X112272223Y-52124828D01*
X112915081Y-50767685D02*
X112986509Y-50696257D01*
X112986509Y-50696257D02*
X113129367Y-50624828D01*
X113129367Y-50624828D02*
X113486509Y-50624828D01*
X113486509Y-50624828D02*
X113629367Y-50696257D01*
X113629367Y-50696257D02*
X113700795Y-50767685D01*
X113700795Y-50767685D02*
X113772224Y-50910542D01*
X113772224Y-50910542D02*
X113772224Y-51053400D01*
X113772224Y-51053400D02*
X113700795Y-51267685D01*
X113700795Y-51267685D02*
X112843652Y-52124828D01*
X112843652Y-52124828D02*
X113772224Y-52124828D01*
D10*
X213395160Y-132410200D02*
X213538017Y-132457819D01*
X213538017Y-132457819D02*
X213776112Y-132457819D01*
X213776112Y-132457819D02*
X213871350Y-132410200D01*
X213871350Y-132410200D02*
X213918969Y-132362580D01*
X213918969Y-132362580D02*
X213966588Y-132267342D01*
X213966588Y-132267342D02*
X213966588Y-132172104D01*
X213966588Y-132172104D02*
X213918969Y-132076866D01*
X213918969Y-132076866D02*
X213871350Y-132029247D01*
X213871350Y-132029247D02*
X213776112Y-131981628D01*
X213776112Y-131981628D02*
X213585636Y-131934009D01*
X213585636Y-131934009D02*
X213490398Y-131886390D01*
X213490398Y-131886390D02*
X213442779Y-131838771D01*
X213442779Y-131838771D02*
X213395160Y-131743533D01*
X213395160Y-131743533D02*
X213395160Y-131648295D01*
X213395160Y-131648295D02*
X213442779Y-131553057D01*
X213442779Y-131553057D02*
X213490398Y-131505438D01*
X213490398Y-131505438D02*
X213585636Y-131457819D01*
X213585636Y-131457819D02*
X213823731Y-131457819D01*
X213823731Y-131457819D02*
X213966588Y-131505438D01*
X214252303Y-131457819D02*
X214823731Y-131457819D01*
X214538017Y-132457819D02*
X214538017Y-131457819D01*
X215347541Y-131981628D02*
X215347541Y-132457819D01*
X215014208Y-131457819D02*
X215347541Y-131981628D01*
X215347541Y-131981628D02*
X215680874Y-131457819D01*
X216490398Y-132457819D02*
X216014208Y-132457819D01*
X216014208Y-132457819D02*
X216014208Y-131457819D01*
X217014208Y-131981628D02*
X217014208Y-132457819D01*
X216680875Y-131457819D02*
X217014208Y-131981628D01*
X217014208Y-131981628D02*
X217347541Y-131457819D01*
X217633256Y-132410200D02*
X217776113Y-132457819D01*
X217776113Y-132457819D02*
X218014208Y-132457819D01*
X218014208Y-132457819D02*
X218109446Y-132410200D01*
X218109446Y-132410200D02*
X218157065Y-132362580D01*
X218157065Y-132362580D02*
X218204684Y-132267342D01*
X218204684Y-132267342D02*
X218204684Y-132172104D01*
X218204684Y-132172104D02*
X218157065Y-132076866D01*
X218157065Y-132076866D02*
X218109446Y-132029247D01*
X218109446Y-132029247D02*
X218014208Y-131981628D01*
X218014208Y-131981628D02*
X217823732Y-131934009D01*
X217823732Y-131934009D02*
X217728494Y-131886390D01*
X217728494Y-131886390D02*
X217680875Y-131838771D01*
X217680875Y-131838771D02*
X217633256Y-131743533D01*
X217633256Y-131743533D02*
X217633256Y-131648295D01*
X217633256Y-131648295D02*
X217680875Y-131553057D01*
X217680875Y-131553057D02*
X217728494Y-131505438D01*
X217728494Y-131505438D02*
X217823732Y-131457819D01*
X217823732Y-131457819D02*
X218061827Y-131457819D01*
X218061827Y-131457819D02*
X218204684Y-131505438D01*
X167748009Y-72815220D02*
X167748009Y-72481887D01*
X168271819Y-72339030D02*
X168271819Y-72815220D01*
X168271819Y-72815220D02*
X167271819Y-72815220D01*
X167271819Y-72815220D02*
X167271819Y-72339030D01*
X168224200Y-71958077D02*
X168271819Y-71815220D01*
X168271819Y-71815220D02*
X168271819Y-71577125D01*
X168271819Y-71577125D02*
X168224200Y-71481887D01*
X168224200Y-71481887D02*
X168176580Y-71434268D01*
X168176580Y-71434268D02*
X168081342Y-71386649D01*
X168081342Y-71386649D02*
X167986104Y-71386649D01*
X167986104Y-71386649D02*
X167890866Y-71434268D01*
X167890866Y-71434268D02*
X167843247Y-71481887D01*
X167843247Y-71481887D02*
X167795628Y-71577125D01*
X167795628Y-71577125D02*
X167748009Y-71767601D01*
X167748009Y-71767601D02*
X167700390Y-71862839D01*
X167700390Y-71862839D02*
X167652771Y-71910458D01*
X167652771Y-71910458D02*
X167557533Y-71958077D01*
X167557533Y-71958077D02*
X167462295Y-71958077D01*
X167462295Y-71958077D02*
X167367057Y-71910458D01*
X167367057Y-71910458D02*
X167319438Y-71862839D01*
X167319438Y-71862839D02*
X167271819Y-71767601D01*
X167271819Y-71767601D02*
X167271819Y-71529506D01*
X167271819Y-71529506D02*
X167319438Y-71386649D01*
X168271819Y-70958077D02*
X167271819Y-70958077D01*
X167271819Y-70958077D02*
X167271819Y-70577125D01*
X167271819Y-70577125D02*
X167319438Y-70481887D01*
X167319438Y-70481887D02*
X167367057Y-70434268D01*
X167367057Y-70434268D02*
X167462295Y-70386649D01*
X167462295Y-70386649D02*
X167605152Y-70386649D01*
X167605152Y-70386649D02*
X167700390Y-70434268D01*
X167700390Y-70434268D02*
X167748009Y-70481887D01*
X167748009Y-70481887D02*
X167795628Y-70577125D01*
X167795628Y-70577125D02*
X167795628Y-70958077D01*
X167271819Y-70053315D02*
X167271819Y-69434268D01*
X167271819Y-69434268D02*
X167652771Y-69767601D01*
X167652771Y-69767601D02*
X167652771Y-69624744D01*
X167652771Y-69624744D02*
X167700390Y-69529506D01*
X167700390Y-69529506D02*
X167748009Y-69481887D01*
X167748009Y-69481887D02*
X167843247Y-69434268D01*
X167843247Y-69434268D02*
X168081342Y-69434268D01*
X168081342Y-69434268D02*
X168176580Y-69481887D01*
X168176580Y-69481887D02*
X168224200Y-69529506D01*
X168224200Y-69529506D02*
X168271819Y-69624744D01*
X168271819Y-69624744D02*
X168271819Y-69910458D01*
X168271819Y-69910458D02*
X168224200Y-70005696D01*
X168224200Y-70005696D02*
X168176580Y-70053315D01*
X167367057Y-69053315D02*
X167319438Y-69005696D01*
X167319438Y-69005696D02*
X167271819Y-68910458D01*
X167271819Y-68910458D02*
X167271819Y-68672363D01*
X167271819Y-68672363D02*
X167319438Y-68577125D01*
X167319438Y-68577125D02*
X167367057Y-68529506D01*
X167367057Y-68529506D02*
X167462295Y-68481887D01*
X167462295Y-68481887D02*
X167557533Y-68481887D01*
X167557533Y-68481887D02*
X167700390Y-68529506D01*
X167700390Y-68529506D02*
X168271819Y-69100934D01*
X168271819Y-69100934D02*
X168271819Y-68481887D01*
X85029922Y-57289819D02*
X85363255Y-58289819D01*
X85363255Y-58289819D02*
X85696588Y-57289819D01*
X86220398Y-57289819D02*
X86410874Y-57289819D01*
X86410874Y-57289819D02*
X86506112Y-57337438D01*
X86506112Y-57337438D02*
X86601350Y-57432676D01*
X86601350Y-57432676D02*
X86648969Y-57623152D01*
X86648969Y-57623152D02*
X86648969Y-57956485D01*
X86648969Y-57956485D02*
X86601350Y-58146961D01*
X86601350Y-58146961D02*
X86506112Y-58242200D01*
X86506112Y-58242200D02*
X86410874Y-58289819D01*
X86410874Y-58289819D02*
X86220398Y-58289819D01*
X86220398Y-58289819D02*
X86125160Y-58242200D01*
X86125160Y-58242200D02*
X86029922Y-58146961D01*
X86029922Y-58146961D02*
X85982303Y-57956485D01*
X85982303Y-57956485D02*
X85982303Y-57623152D01*
X85982303Y-57623152D02*
X86029922Y-57432676D01*
X86029922Y-57432676D02*
X86125160Y-57337438D01*
X86125160Y-57337438D02*
X86220398Y-57289819D01*
X87553731Y-58289819D02*
X87077541Y-58289819D01*
X87077541Y-58289819D02*
X87077541Y-57289819D01*
X87887065Y-57289819D02*
X87887065Y-58099342D01*
X87887065Y-58099342D02*
X87934684Y-58194580D01*
X87934684Y-58194580D02*
X87982303Y-58242200D01*
X87982303Y-58242200D02*
X88077541Y-58289819D01*
X88077541Y-58289819D02*
X88268017Y-58289819D01*
X88268017Y-58289819D02*
X88363255Y-58242200D01*
X88363255Y-58242200D02*
X88410874Y-58194580D01*
X88410874Y-58194580D02*
X88458493Y-58099342D01*
X88458493Y-58099342D02*
X88458493Y-57289819D01*
X88934684Y-58289819D02*
X88934684Y-57289819D01*
X88934684Y-57289819D02*
X89268017Y-58004104D01*
X89268017Y-58004104D02*
X89601350Y-57289819D01*
X89601350Y-57289819D02*
X89601350Y-58289819D01*
X90077541Y-57766009D02*
X90410874Y-57766009D01*
X90553731Y-58289819D02*
X90077541Y-58289819D01*
X90077541Y-58289819D02*
X90077541Y-57289819D01*
X90077541Y-57289819D02*
X90553731Y-57289819D01*
X88427160Y-132410200D02*
X88570017Y-132457819D01*
X88570017Y-132457819D02*
X88808112Y-132457819D01*
X88808112Y-132457819D02*
X88903350Y-132410200D01*
X88903350Y-132410200D02*
X88950969Y-132362580D01*
X88950969Y-132362580D02*
X88998588Y-132267342D01*
X88998588Y-132267342D02*
X88998588Y-132172104D01*
X88998588Y-132172104D02*
X88950969Y-132076866D01*
X88950969Y-132076866D02*
X88903350Y-132029247D01*
X88903350Y-132029247D02*
X88808112Y-131981628D01*
X88808112Y-131981628D02*
X88617636Y-131934009D01*
X88617636Y-131934009D02*
X88522398Y-131886390D01*
X88522398Y-131886390D02*
X88474779Y-131838771D01*
X88474779Y-131838771D02*
X88427160Y-131743533D01*
X88427160Y-131743533D02*
X88427160Y-131648295D01*
X88427160Y-131648295D02*
X88474779Y-131553057D01*
X88474779Y-131553057D02*
X88522398Y-131505438D01*
X88522398Y-131505438D02*
X88617636Y-131457819D01*
X88617636Y-131457819D02*
X88855731Y-131457819D01*
X88855731Y-131457819D02*
X88998588Y-131505438D01*
X89284303Y-131457819D02*
X89855731Y-131457819D01*
X89570017Y-132457819D02*
X89570017Y-131457819D01*
X90379541Y-131981628D02*
X90379541Y-132457819D01*
X90046208Y-131457819D02*
X90379541Y-131981628D01*
X90379541Y-131981628D02*
X90712874Y-131457819D01*
X91522398Y-132457819D02*
X91046208Y-132457819D01*
X91046208Y-132457819D02*
X91046208Y-131457819D01*
X92046208Y-131981628D02*
X92046208Y-132457819D01*
X91712875Y-131457819D02*
X92046208Y-131981628D01*
X92046208Y-131981628D02*
X92379541Y-131457819D01*
X92665256Y-132410200D02*
X92808113Y-132457819D01*
X92808113Y-132457819D02*
X93046208Y-132457819D01*
X93046208Y-132457819D02*
X93141446Y-132410200D01*
X93141446Y-132410200D02*
X93189065Y-132362580D01*
X93189065Y-132362580D02*
X93236684Y-132267342D01*
X93236684Y-132267342D02*
X93236684Y-132172104D01*
X93236684Y-132172104D02*
X93189065Y-132076866D01*
X93189065Y-132076866D02*
X93141446Y-132029247D01*
X93141446Y-132029247D02*
X93046208Y-131981628D01*
X93046208Y-131981628D02*
X92855732Y-131934009D01*
X92855732Y-131934009D02*
X92760494Y-131886390D01*
X92760494Y-131886390D02*
X92712875Y-131838771D01*
X92712875Y-131838771D02*
X92665256Y-131743533D01*
X92665256Y-131743533D02*
X92665256Y-131648295D01*
X92665256Y-131648295D02*
X92712875Y-131553057D01*
X92712875Y-131553057D02*
X92760494Y-131505438D01*
X92760494Y-131505438D02*
X92855732Y-131457819D01*
X92855732Y-131457819D02*
X93093827Y-131457819D01*
X93093827Y-131457819D02*
X93236684Y-131505438D01*
X208673819Y-72307220D02*
X209483342Y-72307220D01*
X209483342Y-72307220D02*
X209578580Y-72259601D01*
X209578580Y-72259601D02*
X209626200Y-72211982D01*
X209626200Y-72211982D02*
X209673819Y-72116744D01*
X209673819Y-72116744D02*
X209673819Y-71926268D01*
X209673819Y-71926268D02*
X209626200Y-71831030D01*
X209626200Y-71831030D02*
X209578580Y-71783411D01*
X209578580Y-71783411D02*
X209483342Y-71735792D01*
X209483342Y-71735792D02*
X208673819Y-71735792D01*
X209626200Y-71307220D02*
X209673819Y-71164363D01*
X209673819Y-71164363D02*
X209673819Y-70926268D01*
X209673819Y-70926268D02*
X209626200Y-70831030D01*
X209626200Y-70831030D02*
X209578580Y-70783411D01*
X209578580Y-70783411D02*
X209483342Y-70735792D01*
X209483342Y-70735792D02*
X209388104Y-70735792D01*
X209388104Y-70735792D02*
X209292866Y-70783411D01*
X209292866Y-70783411D02*
X209245247Y-70831030D01*
X209245247Y-70831030D02*
X209197628Y-70926268D01*
X209197628Y-70926268D02*
X209150009Y-71116744D01*
X209150009Y-71116744D02*
X209102390Y-71211982D01*
X209102390Y-71211982D02*
X209054771Y-71259601D01*
X209054771Y-71259601D02*
X208959533Y-71307220D01*
X208959533Y-71307220D02*
X208864295Y-71307220D01*
X208864295Y-71307220D02*
X208769057Y-71259601D01*
X208769057Y-71259601D02*
X208721438Y-71211982D01*
X208721438Y-71211982D02*
X208673819Y-71116744D01*
X208673819Y-71116744D02*
X208673819Y-70878649D01*
X208673819Y-70878649D02*
X208721438Y-70735792D01*
X209150009Y-69973887D02*
X209197628Y-69831030D01*
X209197628Y-69831030D02*
X209245247Y-69783411D01*
X209245247Y-69783411D02*
X209340485Y-69735792D01*
X209340485Y-69735792D02*
X209483342Y-69735792D01*
X209483342Y-69735792D02*
X209578580Y-69783411D01*
X209578580Y-69783411D02*
X209626200Y-69831030D01*
X209626200Y-69831030D02*
X209673819Y-69926268D01*
X209673819Y-69926268D02*
X209673819Y-70307220D01*
X209673819Y-70307220D02*
X208673819Y-70307220D01*
X208673819Y-70307220D02*
X208673819Y-69973887D01*
X208673819Y-69973887D02*
X208721438Y-69878649D01*
X208721438Y-69878649D02*
X208769057Y-69831030D01*
X208769057Y-69831030D02*
X208864295Y-69783411D01*
X208864295Y-69783411D02*
X208959533Y-69783411D01*
X208959533Y-69783411D02*
X209054771Y-69831030D01*
X209054771Y-69831030D02*
X209102390Y-69878649D01*
X209102390Y-69878649D02*
X209150009Y-69973887D01*
X209150009Y-69973887D02*
X209150009Y-70307220D01*
X88665255Y-103771819D02*
X88855731Y-103771819D01*
X88855731Y-103771819D02*
X88950969Y-103819438D01*
X88950969Y-103819438D02*
X89046207Y-103914676D01*
X89046207Y-103914676D02*
X89093826Y-104105152D01*
X89093826Y-104105152D02*
X89093826Y-104438485D01*
X89093826Y-104438485D02*
X89046207Y-104628961D01*
X89046207Y-104628961D02*
X88950969Y-104724200D01*
X88950969Y-104724200D02*
X88855731Y-104771819D01*
X88855731Y-104771819D02*
X88665255Y-104771819D01*
X88665255Y-104771819D02*
X88570017Y-104724200D01*
X88570017Y-104724200D02*
X88474779Y-104628961D01*
X88474779Y-104628961D02*
X88427160Y-104438485D01*
X88427160Y-104438485D02*
X88427160Y-104105152D01*
X88427160Y-104105152D02*
X88474779Y-103914676D01*
X88474779Y-103914676D02*
X88570017Y-103819438D01*
X88570017Y-103819438D02*
X88665255Y-103771819D01*
X90093826Y-104676580D02*
X90046207Y-104724200D01*
X90046207Y-104724200D02*
X89903350Y-104771819D01*
X89903350Y-104771819D02*
X89808112Y-104771819D01*
X89808112Y-104771819D02*
X89665255Y-104724200D01*
X89665255Y-104724200D02*
X89570017Y-104628961D01*
X89570017Y-104628961D02*
X89522398Y-104533723D01*
X89522398Y-104533723D02*
X89474779Y-104343247D01*
X89474779Y-104343247D02*
X89474779Y-104200390D01*
X89474779Y-104200390D02*
X89522398Y-104009914D01*
X89522398Y-104009914D02*
X89570017Y-103914676D01*
X89570017Y-103914676D02*
X89665255Y-103819438D01*
X89665255Y-103819438D02*
X89808112Y-103771819D01*
X89808112Y-103771819D02*
X89903350Y-103771819D01*
X89903350Y-103771819D02*
X90046207Y-103819438D01*
X90046207Y-103819438D02*
X90093826Y-103867057D01*
X90379541Y-103771819D02*
X90950969Y-103771819D01*
X90665255Y-104771819D02*
X90665255Y-103771819D01*
X91236684Y-104486104D02*
X91712874Y-104486104D01*
X91141446Y-104771819D02*
X91474779Y-103771819D01*
X91474779Y-103771819D02*
X91808112Y-104771819D01*
X91998589Y-103771819D02*
X92331922Y-104771819D01*
X92331922Y-104771819D02*
X92665255Y-103771819D01*
X92998589Y-104248009D02*
X93331922Y-104248009D01*
X93474779Y-104771819D02*
X92998589Y-104771819D01*
X92998589Y-104771819D02*
X92998589Y-103771819D01*
X92998589Y-103771819D02*
X93474779Y-103771819D01*
X106513333Y-95788819D02*
X106180000Y-95312628D01*
X105941905Y-95788819D02*
X105941905Y-94788819D01*
X105941905Y-94788819D02*
X106322857Y-94788819D01*
X106322857Y-94788819D02*
X106418095Y-94836438D01*
X106418095Y-94836438D02*
X106465714Y-94884057D01*
X106465714Y-94884057D02*
X106513333Y-94979295D01*
X106513333Y-94979295D02*
X106513333Y-95122152D01*
X106513333Y-95122152D02*
X106465714Y-95217390D01*
X106465714Y-95217390D02*
X106418095Y-95265009D01*
X106418095Y-95265009D02*
X106322857Y-95312628D01*
X106322857Y-95312628D02*
X105941905Y-95312628D01*
X107370476Y-95122152D02*
X107370476Y-95788819D01*
X107132381Y-94741200D02*
X106894286Y-95455485D01*
X106894286Y-95455485D02*
X107513333Y-95455485D01*
X105989523Y-91048819D02*
X105418095Y-91048819D01*
X105703809Y-91048819D02*
X105703809Y-90048819D01*
X105703809Y-90048819D02*
X105608571Y-90191676D01*
X105608571Y-90191676D02*
X105513333Y-90286914D01*
X105513333Y-90286914D02*
X105418095Y-90334533D01*
X106608571Y-90048819D02*
X106703809Y-90048819D01*
X106703809Y-90048819D02*
X106799047Y-90096438D01*
X106799047Y-90096438D02*
X106846666Y-90144057D01*
X106846666Y-90144057D02*
X106894285Y-90239295D01*
X106894285Y-90239295D02*
X106941904Y-90429771D01*
X106941904Y-90429771D02*
X106941904Y-90667866D01*
X106941904Y-90667866D02*
X106894285Y-90858342D01*
X106894285Y-90858342D02*
X106846666Y-90953580D01*
X106846666Y-90953580D02*
X106799047Y-91001200D01*
X106799047Y-91001200D02*
X106703809Y-91048819D01*
X106703809Y-91048819D02*
X106608571Y-91048819D01*
X106608571Y-91048819D02*
X106513333Y-91001200D01*
X106513333Y-91001200D02*
X106465714Y-90953580D01*
X106465714Y-90953580D02*
X106418095Y-90858342D01*
X106418095Y-90858342D02*
X106370476Y-90667866D01*
X106370476Y-90667866D02*
X106370476Y-90429771D01*
X106370476Y-90429771D02*
X106418095Y-90239295D01*
X106418095Y-90239295D02*
X106465714Y-90144057D01*
X106465714Y-90144057D02*
X106513333Y-90096438D01*
X106513333Y-90096438D02*
X106608571Y-90048819D01*
X107370476Y-91048819D02*
X107370476Y-90048819D01*
X107941904Y-91048819D02*
X107513333Y-90477390D01*
X107941904Y-90048819D02*
X107370476Y-90620247D01*
X140700571Y-68526819D02*
X140700571Y-67526819D01*
X140700571Y-67526819D02*
X141033904Y-68241104D01*
X141033904Y-68241104D02*
X141367237Y-67526819D01*
X141367237Y-67526819D02*
X141367237Y-68526819D01*
X142271999Y-68526819D02*
X142271999Y-68003009D01*
X142271999Y-68003009D02*
X142224380Y-67907771D01*
X142224380Y-67907771D02*
X142129142Y-67860152D01*
X142129142Y-67860152D02*
X141938666Y-67860152D01*
X141938666Y-67860152D02*
X141843428Y-67907771D01*
X142271999Y-68479200D02*
X142176761Y-68526819D01*
X142176761Y-68526819D02*
X141938666Y-68526819D01*
X141938666Y-68526819D02*
X141843428Y-68479200D01*
X141843428Y-68479200D02*
X141795809Y-68383961D01*
X141795809Y-68383961D02*
X141795809Y-68288723D01*
X141795809Y-68288723D02*
X141843428Y-68193485D01*
X141843428Y-68193485D02*
X141938666Y-68145866D01*
X141938666Y-68145866D02*
X142176761Y-68145866D01*
X142176761Y-68145866D02*
X142271999Y-68098247D01*
X142652952Y-68526819D02*
X143176761Y-67860152D01*
X142652952Y-67860152D02*
X143176761Y-68526819D01*
X143605333Y-68526819D02*
X143795809Y-68526819D01*
X143795809Y-68526819D02*
X143891047Y-68479200D01*
X143891047Y-68479200D02*
X143938666Y-68431580D01*
X143938666Y-68431580D02*
X144033904Y-68288723D01*
X144033904Y-68288723D02*
X144081523Y-68098247D01*
X144081523Y-68098247D02*
X144081523Y-67717295D01*
X144081523Y-67717295D02*
X144033904Y-67622057D01*
X144033904Y-67622057D02*
X143986285Y-67574438D01*
X143986285Y-67574438D02*
X143891047Y-67526819D01*
X143891047Y-67526819D02*
X143700571Y-67526819D01*
X143700571Y-67526819D02*
X143605333Y-67574438D01*
X143605333Y-67574438D02*
X143557714Y-67622057D01*
X143557714Y-67622057D02*
X143510095Y-67717295D01*
X143510095Y-67717295D02*
X143510095Y-67955390D01*
X143510095Y-67955390D02*
X143557714Y-68050628D01*
X143557714Y-68050628D02*
X143605333Y-68098247D01*
X143605333Y-68098247D02*
X143700571Y-68145866D01*
X143700571Y-68145866D02*
X143891047Y-68145866D01*
X143891047Y-68145866D02*
X143986285Y-68098247D01*
X143986285Y-68098247D02*
X144033904Y-68050628D01*
X144033904Y-68050628D02*
X144081523Y-67955390D01*
X144652952Y-67955390D02*
X144557714Y-67907771D01*
X144557714Y-67907771D02*
X144510095Y-67860152D01*
X144510095Y-67860152D02*
X144462476Y-67764914D01*
X144462476Y-67764914D02*
X144462476Y-67717295D01*
X144462476Y-67717295D02*
X144510095Y-67622057D01*
X144510095Y-67622057D02*
X144557714Y-67574438D01*
X144557714Y-67574438D02*
X144652952Y-67526819D01*
X144652952Y-67526819D02*
X144843428Y-67526819D01*
X144843428Y-67526819D02*
X144938666Y-67574438D01*
X144938666Y-67574438D02*
X144986285Y-67622057D01*
X144986285Y-67622057D02*
X145033904Y-67717295D01*
X145033904Y-67717295D02*
X145033904Y-67764914D01*
X145033904Y-67764914D02*
X144986285Y-67860152D01*
X144986285Y-67860152D02*
X144938666Y-67907771D01*
X144938666Y-67907771D02*
X144843428Y-67955390D01*
X144843428Y-67955390D02*
X144652952Y-67955390D01*
X144652952Y-67955390D02*
X144557714Y-68003009D01*
X144557714Y-68003009D02*
X144510095Y-68050628D01*
X144510095Y-68050628D02*
X144462476Y-68145866D01*
X144462476Y-68145866D02*
X144462476Y-68336342D01*
X144462476Y-68336342D02*
X144510095Y-68431580D01*
X144510095Y-68431580D02*
X144557714Y-68479200D01*
X144557714Y-68479200D02*
X144652952Y-68526819D01*
X144652952Y-68526819D02*
X144843428Y-68526819D01*
X144843428Y-68526819D02*
X144938666Y-68479200D01*
X144938666Y-68479200D02*
X144986285Y-68431580D01*
X144986285Y-68431580D02*
X145033904Y-68336342D01*
X145033904Y-68336342D02*
X145033904Y-68145866D01*
X145033904Y-68145866D02*
X144986285Y-68050628D01*
X144986285Y-68050628D02*
X144938666Y-68003009D01*
X144938666Y-68003009D02*
X144843428Y-67955390D01*
X145367238Y-67526819D02*
X145986285Y-67526819D01*
X145986285Y-67526819D02*
X145652952Y-67907771D01*
X145652952Y-67907771D02*
X145795809Y-67907771D01*
X145795809Y-67907771D02*
X145891047Y-67955390D01*
X145891047Y-67955390D02*
X145938666Y-68003009D01*
X145938666Y-68003009D02*
X145986285Y-68098247D01*
X145986285Y-68098247D02*
X145986285Y-68336342D01*
X145986285Y-68336342D02*
X145938666Y-68431580D01*
X145938666Y-68431580D02*
X145891047Y-68479200D01*
X145891047Y-68479200D02*
X145795809Y-68526819D01*
X145795809Y-68526819D02*
X145510095Y-68526819D01*
X145510095Y-68526819D02*
X145414857Y-68479200D01*
X145414857Y-68479200D02*
X145367238Y-68431580D01*
X146891047Y-67526819D02*
X146414857Y-67526819D01*
X146414857Y-67526819D02*
X146367238Y-68003009D01*
X146367238Y-68003009D02*
X146414857Y-67955390D01*
X146414857Y-67955390D02*
X146510095Y-67907771D01*
X146510095Y-67907771D02*
X146748190Y-67907771D01*
X146748190Y-67907771D02*
X146843428Y-67955390D01*
X146843428Y-67955390D02*
X146891047Y-68003009D01*
X146891047Y-68003009D02*
X146938666Y-68098247D01*
X146938666Y-68098247D02*
X146938666Y-68336342D01*
X146938666Y-68336342D02*
X146891047Y-68431580D01*
X146891047Y-68431580D02*
X146843428Y-68479200D01*
X146843428Y-68479200D02*
X146748190Y-68526819D01*
X146748190Y-68526819D02*
X146510095Y-68526819D01*
X146510095Y-68526819D02*
X146414857Y-68479200D01*
X146414857Y-68479200D02*
X146367238Y-68431580D01*
X147272000Y-67526819D02*
X147938666Y-67526819D01*
X147938666Y-67526819D02*
X147510095Y-68526819D01*
X135158819Y-89828666D02*
X134682628Y-90161999D01*
X135158819Y-90400094D02*
X134158819Y-90400094D01*
X134158819Y-90400094D02*
X134158819Y-90019142D01*
X134158819Y-90019142D02*
X134206438Y-89923904D01*
X134206438Y-89923904D02*
X134254057Y-89876285D01*
X134254057Y-89876285D02*
X134349295Y-89828666D01*
X134349295Y-89828666D02*
X134492152Y-89828666D01*
X134492152Y-89828666D02*
X134587390Y-89876285D01*
X134587390Y-89876285D02*
X134635009Y-89923904D01*
X134635009Y-89923904D02*
X134682628Y-90019142D01*
X134682628Y-90019142D02*
X134682628Y-90400094D01*
X134254057Y-89447713D02*
X134206438Y-89400094D01*
X134206438Y-89400094D02*
X134158819Y-89304856D01*
X134158819Y-89304856D02*
X134158819Y-89066761D01*
X134158819Y-89066761D02*
X134206438Y-88971523D01*
X134206438Y-88971523D02*
X134254057Y-88923904D01*
X134254057Y-88923904D02*
X134349295Y-88876285D01*
X134349295Y-88876285D02*
X134444533Y-88876285D01*
X134444533Y-88876285D02*
X134587390Y-88923904D01*
X134587390Y-88923904D02*
X135158819Y-89495332D01*
X135158819Y-89495332D02*
X135158819Y-88876285D01*
X130418819Y-90352476D02*
X130418819Y-90923904D01*
X130418819Y-90638190D02*
X129418819Y-90638190D01*
X129418819Y-90638190D02*
X129561676Y-90733428D01*
X129561676Y-90733428D02*
X129656914Y-90828666D01*
X129656914Y-90828666D02*
X129704533Y-90923904D01*
X129418819Y-89733428D02*
X129418819Y-89638190D01*
X129418819Y-89638190D02*
X129466438Y-89542952D01*
X129466438Y-89542952D02*
X129514057Y-89495333D01*
X129514057Y-89495333D02*
X129609295Y-89447714D01*
X129609295Y-89447714D02*
X129799771Y-89400095D01*
X129799771Y-89400095D02*
X130037866Y-89400095D01*
X130037866Y-89400095D02*
X130228342Y-89447714D01*
X130228342Y-89447714D02*
X130323580Y-89495333D01*
X130323580Y-89495333D02*
X130371200Y-89542952D01*
X130371200Y-89542952D02*
X130418819Y-89638190D01*
X130418819Y-89638190D02*
X130418819Y-89733428D01*
X130418819Y-89733428D02*
X130371200Y-89828666D01*
X130371200Y-89828666D02*
X130323580Y-89876285D01*
X130323580Y-89876285D02*
X130228342Y-89923904D01*
X130228342Y-89923904D02*
X130037866Y-89971523D01*
X130037866Y-89971523D02*
X129799771Y-89971523D01*
X129799771Y-89971523D02*
X129609295Y-89923904D01*
X129609295Y-89923904D02*
X129514057Y-89876285D01*
X129514057Y-89876285D02*
X129466438Y-89828666D01*
X129466438Y-89828666D02*
X129418819Y-89733428D01*
X130418819Y-88971523D02*
X129418819Y-88971523D01*
X130418819Y-88400095D02*
X129847390Y-88828666D01*
X129418819Y-88400095D02*
X129990247Y-88971523D01*
X146758819Y-91098666D02*
X146282628Y-91431999D01*
X146758819Y-91670094D02*
X145758819Y-91670094D01*
X145758819Y-91670094D02*
X145758819Y-91289142D01*
X145758819Y-91289142D02*
X145806438Y-91193904D01*
X145806438Y-91193904D02*
X145854057Y-91146285D01*
X145854057Y-91146285D02*
X145949295Y-91098666D01*
X145949295Y-91098666D02*
X146092152Y-91098666D01*
X146092152Y-91098666D02*
X146187390Y-91146285D01*
X146187390Y-91146285D02*
X146235009Y-91193904D01*
X146235009Y-91193904D02*
X146282628Y-91289142D01*
X146282628Y-91289142D02*
X146282628Y-91670094D01*
X145758819Y-90765332D02*
X145758819Y-90146285D01*
X145758819Y-90146285D02*
X146139771Y-90479618D01*
X146139771Y-90479618D02*
X146139771Y-90336761D01*
X146139771Y-90336761D02*
X146187390Y-90241523D01*
X146187390Y-90241523D02*
X146235009Y-90193904D01*
X146235009Y-90193904D02*
X146330247Y-90146285D01*
X146330247Y-90146285D02*
X146568342Y-90146285D01*
X146568342Y-90146285D02*
X146663580Y-90193904D01*
X146663580Y-90193904D02*
X146711200Y-90241523D01*
X146711200Y-90241523D02*
X146758819Y-90336761D01*
X146758819Y-90336761D02*
X146758819Y-90622475D01*
X146758819Y-90622475D02*
X146711200Y-90717713D01*
X146711200Y-90717713D02*
X146663580Y-90765332D01*
X141848819Y-90352476D02*
X141848819Y-90923904D01*
X141848819Y-90638190D02*
X140848819Y-90638190D01*
X140848819Y-90638190D02*
X140991676Y-90733428D01*
X140991676Y-90733428D02*
X141086914Y-90828666D01*
X141086914Y-90828666D02*
X141134533Y-90923904D01*
X140848819Y-89733428D02*
X140848819Y-89638190D01*
X140848819Y-89638190D02*
X140896438Y-89542952D01*
X140896438Y-89542952D02*
X140944057Y-89495333D01*
X140944057Y-89495333D02*
X141039295Y-89447714D01*
X141039295Y-89447714D02*
X141229771Y-89400095D01*
X141229771Y-89400095D02*
X141467866Y-89400095D01*
X141467866Y-89400095D02*
X141658342Y-89447714D01*
X141658342Y-89447714D02*
X141753580Y-89495333D01*
X141753580Y-89495333D02*
X141801200Y-89542952D01*
X141801200Y-89542952D02*
X141848819Y-89638190D01*
X141848819Y-89638190D02*
X141848819Y-89733428D01*
X141848819Y-89733428D02*
X141801200Y-89828666D01*
X141801200Y-89828666D02*
X141753580Y-89876285D01*
X141753580Y-89876285D02*
X141658342Y-89923904D01*
X141658342Y-89923904D02*
X141467866Y-89971523D01*
X141467866Y-89971523D02*
X141229771Y-89971523D01*
X141229771Y-89971523D02*
X141039295Y-89923904D01*
X141039295Y-89923904D02*
X140944057Y-89876285D01*
X140944057Y-89876285D02*
X140896438Y-89828666D01*
X140896438Y-89828666D02*
X140848819Y-89733428D01*
X141848819Y-88971523D02*
X140848819Y-88971523D01*
X141848819Y-88400095D02*
X141277390Y-88828666D01*
X140848819Y-88400095D02*
X141420247Y-88971523D01*
X157680819Y-92368666D02*
X157204628Y-92701999D01*
X157680819Y-92940094D02*
X156680819Y-92940094D01*
X156680819Y-92940094D02*
X156680819Y-92559142D01*
X156680819Y-92559142D02*
X156728438Y-92463904D01*
X156728438Y-92463904D02*
X156776057Y-92416285D01*
X156776057Y-92416285D02*
X156871295Y-92368666D01*
X156871295Y-92368666D02*
X157014152Y-92368666D01*
X157014152Y-92368666D02*
X157109390Y-92416285D01*
X157109390Y-92416285D02*
X157157009Y-92463904D01*
X157157009Y-92463904D02*
X157204628Y-92559142D01*
X157204628Y-92559142D02*
X157204628Y-92940094D01*
X157680819Y-91416285D02*
X157680819Y-91987713D01*
X157680819Y-91701999D02*
X156680819Y-91701999D01*
X156680819Y-91701999D02*
X156823676Y-91797237D01*
X156823676Y-91797237D02*
X156918914Y-91892475D01*
X156918914Y-91892475D02*
X156966533Y-91987713D01*
X151600819Y-93995713D02*
X151600819Y-93376666D01*
X151600819Y-93376666D02*
X151981771Y-93709999D01*
X151981771Y-93709999D02*
X151981771Y-93567142D01*
X151981771Y-93567142D02*
X152029390Y-93471904D01*
X152029390Y-93471904D02*
X152077009Y-93424285D01*
X152077009Y-93424285D02*
X152172247Y-93376666D01*
X152172247Y-93376666D02*
X152410342Y-93376666D01*
X152410342Y-93376666D02*
X152505580Y-93424285D01*
X152505580Y-93424285D02*
X152553200Y-93471904D01*
X152553200Y-93471904D02*
X152600819Y-93567142D01*
X152600819Y-93567142D02*
X152600819Y-93852856D01*
X152600819Y-93852856D02*
X152553200Y-93948094D01*
X152553200Y-93948094D02*
X152505580Y-93995713D01*
X151600819Y-93043332D02*
X151600819Y-92424285D01*
X151600819Y-92424285D02*
X151981771Y-92757618D01*
X151981771Y-92757618D02*
X151981771Y-92614761D01*
X151981771Y-92614761D02*
X152029390Y-92519523D01*
X152029390Y-92519523D02*
X152077009Y-92471904D01*
X152077009Y-92471904D02*
X152172247Y-92424285D01*
X152172247Y-92424285D02*
X152410342Y-92424285D01*
X152410342Y-92424285D02*
X152505580Y-92471904D01*
X152505580Y-92471904D02*
X152553200Y-92519523D01*
X152553200Y-92519523D02*
X152600819Y-92614761D01*
X152600819Y-92614761D02*
X152600819Y-92900475D01*
X152600819Y-92900475D02*
X152553200Y-92995713D01*
X152553200Y-92995713D02*
X152505580Y-93043332D01*
X151600819Y-91805237D02*
X151600819Y-91709999D01*
X151600819Y-91709999D02*
X151648438Y-91614761D01*
X151648438Y-91614761D02*
X151696057Y-91567142D01*
X151696057Y-91567142D02*
X151791295Y-91519523D01*
X151791295Y-91519523D02*
X151981771Y-91471904D01*
X151981771Y-91471904D02*
X152219866Y-91471904D01*
X152219866Y-91471904D02*
X152410342Y-91519523D01*
X152410342Y-91519523D02*
X152505580Y-91567142D01*
X152505580Y-91567142D02*
X152553200Y-91614761D01*
X152553200Y-91614761D02*
X152600819Y-91709999D01*
X152600819Y-91709999D02*
X152600819Y-91805237D01*
X152600819Y-91805237D02*
X152553200Y-91900475D01*
X152553200Y-91900475D02*
X152505580Y-91948094D01*
X152505580Y-91948094D02*
X152410342Y-91995713D01*
X152410342Y-91995713D02*
X152219866Y-92043332D01*
X152219866Y-92043332D02*
X151981771Y-92043332D01*
X151981771Y-92043332D02*
X151791295Y-91995713D01*
X151791295Y-91995713D02*
X151696057Y-91948094D01*
X151696057Y-91948094D02*
X151648438Y-91900475D01*
X151648438Y-91900475D02*
X151600819Y-91805237D01*
X125168819Y-89574666D02*
X124692628Y-89907999D01*
X125168819Y-90146094D02*
X124168819Y-90146094D01*
X124168819Y-90146094D02*
X124168819Y-89765142D01*
X124168819Y-89765142D02*
X124216438Y-89669904D01*
X124216438Y-89669904D02*
X124264057Y-89622285D01*
X124264057Y-89622285D02*
X124359295Y-89574666D01*
X124359295Y-89574666D02*
X124502152Y-89574666D01*
X124502152Y-89574666D02*
X124597390Y-89622285D01*
X124597390Y-89622285D02*
X124645009Y-89669904D01*
X124645009Y-89669904D02*
X124692628Y-89765142D01*
X124692628Y-89765142D02*
X124692628Y-90146094D01*
X124168819Y-88669904D02*
X124168819Y-89146094D01*
X124168819Y-89146094D02*
X124645009Y-89193713D01*
X124645009Y-89193713D02*
X124597390Y-89146094D01*
X124597390Y-89146094D02*
X124549771Y-89050856D01*
X124549771Y-89050856D02*
X124549771Y-88812761D01*
X124549771Y-88812761D02*
X124597390Y-88717523D01*
X124597390Y-88717523D02*
X124645009Y-88669904D01*
X124645009Y-88669904D02*
X124740247Y-88622285D01*
X124740247Y-88622285D02*
X124978342Y-88622285D01*
X124978342Y-88622285D02*
X125073580Y-88669904D01*
X125073580Y-88669904D02*
X125121200Y-88717523D01*
X125121200Y-88717523D02*
X125168819Y-88812761D01*
X125168819Y-88812761D02*
X125168819Y-89050856D01*
X125168819Y-89050856D02*
X125121200Y-89146094D01*
X125121200Y-89146094D02*
X125073580Y-89193713D01*
X120512819Y-90098476D02*
X120512819Y-90669904D01*
X120512819Y-90384190D02*
X119512819Y-90384190D01*
X119512819Y-90384190D02*
X119655676Y-90479428D01*
X119655676Y-90479428D02*
X119750914Y-90574666D01*
X119750914Y-90574666D02*
X119798533Y-90669904D01*
X119512819Y-89479428D02*
X119512819Y-89384190D01*
X119512819Y-89384190D02*
X119560438Y-89288952D01*
X119560438Y-89288952D02*
X119608057Y-89241333D01*
X119608057Y-89241333D02*
X119703295Y-89193714D01*
X119703295Y-89193714D02*
X119893771Y-89146095D01*
X119893771Y-89146095D02*
X120131866Y-89146095D01*
X120131866Y-89146095D02*
X120322342Y-89193714D01*
X120322342Y-89193714D02*
X120417580Y-89241333D01*
X120417580Y-89241333D02*
X120465200Y-89288952D01*
X120465200Y-89288952D02*
X120512819Y-89384190D01*
X120512819Y-89384190D02*
X120512819Y-89479428D01*
X120512819Y-89479428D02*
X120465200Y-89574666D01*
X120465200Y-89574666D02*
X120417580Y-89622285D01*
X120417580Y-89622285D02*
X120322342Y-89669904D01*
X120322342Y-89669904D02*
X120131866Y-89717523D01*
X120131866Y-89717523D02*
X119893771Y-89717523D01*
X119893771Y-89717523D02*
X119703295Y-89669904D01*
X119703295Y-89669904D02*
X119608057Y-89622285D01*
X119608057Y-89622285D02*
X119560438Y-89574666D01*
X119560438Y-89574666D02*
X119512819Y-89479428D01*
X120512819Y-88717523D02*
X119512819Y-88717523D01*
X120512819Y-88146095D02*
X119941390Y-88574666D01*
X119512819Y-88146095D02*
X120084247Y-88717523D01*
X110776095Y-70495200D02*
X110918952Y-70542819D01*
X110918952Y-70542819D02*
X111157047Y-70542819D01*
X111157047Y-70542819D02*
X111252285Y-70495200D01*
X111252285Y-70495200D02*
X111299904Y-70447580D01*
X111299904Y-70447580D02*
X111347523Y-70352342D01*
X111347523Y-70352342D02*
X111347523Y-70257104D01*
X111347523Y-70257104D02*
X111299904Y-70161866D01*
X111299904Y-70161866D02*
X111252285Y-70114247D01*
X111252285Y-70114247D02*
X111157047Y-70066628D01*
X111157047Y-70066628D02*
X110966571Y-70019009D01*
X110966571Y-70019009D02*
X110871333Y-69971390D01*
X110871333Y-69971390D02*
X110823714Y-69923771D01*
X110823714Y-69923771D02*
X110776095Y-69828533D01*
X110776095Y-69828533D02*
X110776095Y-69733295D01*
X110776095Y-69733295D02*
X110823714Y-69638057D01*
X110823714Y-69638057D02*
X110871333Y-69590438D01*
X110871333Y-69590438D02*
X110966571Y-69542819D01*
X110966571Y-69542819D02*
X111204666Y-69542819D01*
X111204666Y-69542819D02*
X111347523Y-69590438D01*
X111776095Y-69876152D02*
X111776095Y-70876152D01*
X111776095Y-69923771D02*
X111871333Y-69876152D01*
X111871333Y-69876152D02*
X112061809Y-69876152D01*
X112061809Y-69876152D02*
X112157047Y-69923771D01*
X112157047Y-69923771D02*
X112204666Y-69971390D01*
X112204666Y-69971390D02*
X112252285Y-70066628D01*
X112252285Y-70066628D02*
X112252285Y-70352342D01*
X112252285Y-70352342D02*
X112204666Y-70447580D01*
X112204666Y-70447580D02*
X112157047Y-70495200D01*
X112157047Y-70495200D02*
X112061809Y-70542819D01*
X112061809Y-70542819D02*
X111871333Y-70542819D01*
X111871333Y-70542819D02*
X111776095Y-70495200D01*
X113061809Y-70495200D02*
X112966571Y-70542819D01*
X112966571Y-70542819D02*
X112776095Y-70542819D01*
X112776095Y-70542819D02*
X112680857Y-70495200D01*
X112680857Y-70495200D02*
X112633238Y-70399961D01*
X112633238Y-70399961D02*
X112633238Y-70019009D01*
X112633238Y-70019009D02*
X112680857Y-69923771D01*
X112680857Y-69923771D02*
X112776095Y-69876152D01*
X112776095Y-69876152D02*
X112966571Y-69876152D01*
X112966571Y-69876152D02*
X113061809Y-69923771D01*
X113061809Y-69923771D02*
X113109428Y-70019009D01*
X113109428Y-70019009D02*
X113109428Y-70114247D01*
X113109428Y-70114247D02*
X112633238Y-70209485D01*
X113966571Y-70542819D02*
X113966571Y-70019009D01*
X113966571Y-70019009D02*
X113918952Y-69923771D01*
X113918952Y-69923771D02*
X113823714Y-69876152D01*
X113823714Y-69876152D02*
X113633238Y-69876152D01*
X113633238Y-69876152D02*
X113538000Y-69923771D01*
X113966571Y-70495200D02*
X113871333Y-70542819D01*
X113871333Y-70542819D02*
X113633238Y-70542819D01*
X113633238Y-70542819D02*
X113538000Y-70495200D01*
X113538000Y-70495200D02*
X113490381Y-70399961D01*
X113490381Y-70399961D02*
X113490381Y-70304723D01*
X113490381Y-70304723D02*
X113538000Y-70209485D01*
X113538000Y-70209485D02*
X113633238Y-70161866D01*
X113633238Y-70161866D02*
X113871333Y-70161866D01*
X113871333Y-70161866D02*
X113966571Y-70114247D01*
X114442762Y-70542819D02*
X114442762Y-69542819D01*
X114538000Y-70161866D02*
X114823714Y-70542819D01*
X114823714Y-69876152D02*
X114442762Y-70257104D01*
X115633238Y-70495200D02*
X115538000Y-70542819D01*
X115538000Y-70542819D02*
X115347524Y-70542819D01*
X115347524Y-70542819D02*
X115252286Y-70495200D01*
X115252286Y-70495200D02*
X115204667Y-70399961D01*
X115204667Y-70399961D02*
X115204667Y-70019009D01*
X115204667Y-70019009D02*
X115252286Y-69923771D01*
X115252286Y-69923771D02*
X115347524Y-69876152D01*
X115347524Y-69876152D02*
X115538000Y-69876152D01*
X115538000Y-69876152D02*
X115633238Y-69923771D01*
X115633238Y-69923771D02*
X115680857Y-70019009D01*
X115680857Y-70019009D02*
X115680857Y-70114247D01*
X115680857Y-70114247D02*
X115204667Y-70209485D01*
X116109429Y-70542819D02*
X116109429Y-69876152D01*
X116109429Y-70066628D02*
X116157048Y-69971390D01*
X116157048Y-69971390D02*
X116204667Y-69923771D01*
X116204667Y-69923771D02*
X116299905Y-69876152D01*
X116299905Y-69876152D02*
X116395143Y-69876152D01*
X86685523Y-80210819D02*
X86114095Y-80210819D01*
X86399809Y-80210819D02*
X86399809Y-79210819D01*
X86399809Y-79210819D02*
X86304571Y-79353676D01*
X86304571Y-79353676D02*
X86209333Y-79448914D01*
X86209333Y-79448914D02*
X86114095Y-79496533D01*
X87304571Y-79210819D02*
X87399809Y-79210819D01*
X87399809Y-79210819D02*
X87495047Y-79258438D01*
X87495047Y-79258438D02*
X87542666Y-79306057D01*
X87542666Y-79306057D02*
X87590285Y-79401295D01*
X87590285Y-79401295D02*
X87637904Y-79591771D01*
X87637904Y-79591771D02*
X87637904Y-79829866D01*
X87637904Y-79829866D02*
X87590285Y-80020342D01*
X87590285Y-80020342D02*
X87542666Y-80115580D01*
X87542666Y-80115580D02*
X87495047Y-80163200D01*
X87495047Y-80163200D02*
X87399809Y-80210819D01*
X87399809Y-80210819D02*
X87304571Y-80210819D01*
X87304571Y-80210819D02*
X87209333Y-80163200D01*
X87209333Y-80163200D02*
X87161714Y-80115580D01*
X87161714Y-80115580D02*
X87114095Y-80020342D01*
X87114095Y-80020342D02*
X87066476Y-79829866D01*
X87066476Y-79829866D02*
X87066476Y-79591771D01*
X87066476Y-79591771D02*
X87114095Y-79401295D01*
X87114095Y-79401295D02*
X87161714Y-79306057D01*
X87161714Y-79306057D02*
X87209333Y-79258438D01*
X87209333Y-79258438D02*
X87304571Y-79210819D01*
X88066476Y-80210819D02*
X88066476Y-79210819D01*
X88637904Y-80210819D02*
X88209333Y-79639390D01*
X88637904Y-79210819D02*
X88066476Y-79782247D01*
X89558952Y-91386819D02*
X89082762Y-91386819D01*
X89082762Y-91386819D02*
X89082762Y-90386819D01*
X89892286Y-90863009D02*
X90225619Y-90863009D01*
X90368476Y-91386819D02*
X89892286Y-91386819D01*
X89892286Y-91386819D02*
X89892286Y-90386819D01*
X89892286Y-90386819D02*
X90368476Y-90386819D01*
X90797048Y-91386819D02*
X90797048Y-90386819D01*
X90797048Y-90386819D02*
X91035143Y-90386819D01*
X91035143Y-90386819D02*
X91178000Y-90434438D01*
X91178000Y-90434438D02*
X91273238Y-90529676D01*
X91273238Y-90529676D02*
X91320857Y-90624914D01*
X91320857Y-90624914D02*
X91368476Y-90815390D01*
X91368476Y-90815390D02*
X91368476Y-90958247D01*
X91368476Y-90958247D02*
X91320857Y-91148723D01*
X91320857Y-91148723D02*
X91273238Y-91243961D01*
X91273238Y-91243961D02*
X91178000Y-91339200D01*
X91178000Y-91339200D02*
X91035143Y-91386819D01*
X91035143Y-91386819D02*
X90797048Y-91386819D01*
X92320857Y-91386819D02*
X91749429Y-91386819D01*
X92035143Y-91386819D02*
X92035143Y-90386819D01*
X92035143Y-90386819D02*
X91939905Y-90529676D01*
X91939905Y-90529676D02*
X91844667Y-90624914D01*
X91844667Y-90624914D02*
X91749429Y-90672533D01*
D12*
%TO.C,R4*%
X103410000Y-91594000D02*
X103410000Y-91924000D01*
X103410000Y-94334000D02*
X103410000Y-94004000D01*
X109950000Y-91594000D02*
X103410000Y-91594000D01*
X109950000Y-91924000D02*
X109950000Y-91594000D01*
X109950000Y-94004000D02*
X109950000Y-94334000D01*
X109950000Y-94334000D02*
X103410000Y-94334000D01*
%TO.C,REF\u002A\u002A*%
D13*
X135636000Y-59563000D02*
X153924000Y-59563000D01*
X153924000Y-76581000D01*
X135636000Y-76581000D01*
X135636000Y-59563000D01*
D12*
%TO.C,R2*%
X130964000Y-86392000D02*
X130964000Y-92932000D01*
X130964000Y-92932000D02*
X131294000Y-92932000D01*
X131294000Y-86392000D02*
X130964000Y-86392000D01*
X133374000Y-86392000D02*
X133704000Y-86392000D01*
X133704000Y-86392000D02*
X133704000Y-92932000D01*
X133704000Y-92932000D02*
X133374000Y-92932000D01*
%TO.C,BTN-MODE2*%
X214266000Y-106570000D02*
X215646000Y-106570000D01*
X214266000Y-107950000D02*
X214266000Y-106570000D01*
X214266000Y-109220000D02*
X214266000Y-109330000D01*
X214266000Y-109220000D02*
X217026000Y-109220000D01*
X214266000Y-109330000D02*
X217026000Y-109330000D01*
X217026000Y-109220000D02*
X217026000Y-109330000D01*
%TO.C,R3*%
X142394000Y-86392000D02*
X142394000Y-92932000D01*
X142394000Y-92932000D02*
X142724000Y-92932000D01*
X142724000Y-86392000D02*
X142394000Y-86392000D01*
X144804000Y-86392000D02*
X145134000Y-86392000D01*
X145134000Y-86392000D02*
X145134000Y-92932000D01*
X145134000Y-92932000D02*
X144804000Y-92932000D01*
%TO.C,ESP32-R1*%
X166310000Y-56836000D02*
X167640000Y-56836000D01*
X166310000Y-58166000D02*
X166310000Y-56836000D01*
X168910000Y-56836000D02*
X204530000Y-56836000D01*
X168910000Y-59496000D02*
X168910000Y-56836000D01*
X168910000Y-59496000D02*
X204530000Y-59496000D01*
X204530000Y-59496000D02*
X204530000Y-56836000D01*
%TO.C,R1*%
X153316000Y-86138000D02*
X153316000Y-92678000D01*
X153316000Y-92678000D02*
X153646000Y-92678000D01*
X153646000Y-86138000D02*
X153316000Y-86138000D01*
X155726000Y-86138000D02*
X156056000Y-86138000D01*
X156056000Y-86138000D02*
X156056000Y-92678000D01*
X156056000Y-92678000D02*
X155726000Y-92678000D01*
%TO.C,BTN-UP1*%
X89044000Y-111570000D02*
X90424000Y-111570000D01*
X89044000Y-112950000D02*
X89044000Y-111570000D01*
X89044000Y-114220000D02*
X89044000Y-114330000D01*
X89044000Y-114220000D02*
X91804000Y-114220000D01*
X89044000Y-114330000D02*
X91804000Y-114330000D01*
X91804000Y-114220000D02*
X91804000Y-114330000D01*
%TO.C,R5*%
X121058000Y-86138000D02*
X121058000Y-92678000D01*
X121058000Y-92678000D02*
X121388000Y-92678000D01*
X121388000Y-86138000D02*
X121058000Y-86138000D01*
X123468000Y-86138000D02*
X123798000Y-86138000D01*
X123798000Y-86138000D02*
X123798000Y-92678000D01*
X123798000Y-92678000D02*
X123468000Y-92678000D01*
%TO.C,REF\u002A\u002A*%
D13*
X99568000Y-55118000D02*
X127568000Y-55118000D01*
X127568000Y-82864000D01*
X99568000Y-82864000D01*
X99568000Y-55118000D01*
D12*
%TO.C,JGND2*%
X214266000Y-129396000D02*
X214266000Y-128016000D01*
X215646000Y-129396000D02*
X214266000Y-129396000D01*
X216916000Y-126636000D02*
X217026000Y-126636000D01*
X216916000Y-129396000D02*
X216916000Y-126636000D01*
X216916000Y-129396000D02*
X217026000Y-129396000D01*
X217026000Y-129396000D02*
X217026000Y-126636000D01*
%TO.C,SND1*%
X151020000Y-59072000D02*
X152400000Y-59072000D01*
X151020000Y-60452000D02*
X151020000Y-59072000D01*
X151020000Y-61722000D02*
X151020000Y-77072000D01*
X151020000Y-61722000D02*
X153780000Y-61722000D01*
X151020000Y-77072000D02*
X153780000Y-77072000D01*
X153780000Y-61722000D02*
X153780000Y-77072000D01*
%TO.C,BTN-MODE1*%
X214266000Y-111570000D02*
X215646000Y-111570000D01*
X214266000Y-112950000D02*
X214266000Y-111570000D01*
X214266000Y-114220000D02*
X214266000Y-114330000D01*
X214266000Y-114220000D02*
X217026000Y-114220000D01*
X214266000Y-114330000D02*
X217026000Y-114330000D01*
X217026000Y-114220000D02*
X217026000Y-114330000D01*
%TO.C,RV1*%
X66170000Y-72128000D02*
X66170000Y-65888000D01*
X76170000Y-65888000D02*
X66170000Y-65888000D01*
X76170000Y-72128000D02*
X66170000Y-72128000D01*
X76170000Y-72628000D02*
X76170000Y-65388000D01*
X81170000Y-65388000D02*
X76170000Y-65388000D01*
X81170000Y-72628000D02*
X76170000Y-72628000D01*
X81170000Y-78078000D02*
X81170000Y-59938000D01*
X91910000Y-59938000D02*
X81170000Y-59938000D01*
X91910000Y-78078000D02*
X81170000Y-78078000D01*
X91910000Y-78078000D02*
X91910000Y-59938000D01*
%TO.C,LED1*%
X89442000Y-95794000D02*
X89598000Y-95794000D01*
X91758000Y-95794000D02*
X91914000Y-95794000D01*
X89442484Y-95794000D02*
G75*
G02*
X89598000Y-92562563I1235516J1560000D01*
G01*
X89598000Y-95274961D02*
G75*
G02*
X89598000Y-93193039I1080000J1040961D01*
G01*
X91758000Y-92562563D02*
G75*
G02*
X91913516Y-95794000I-1080000J-1671437D01*
G01*
X91758000Y-93193039D02*
G75*
G02*
X91758000Y-95274961I-1080000J-1040961D01*
G01*
%TO.C,BTN-UP2*%
X89044000Y-106570000D02*
X90424000Y-106570000D01*
X89044000Y-107950000D02*
X89044000Y-106570000D01*
X89044000Y-109220000D02*
X89044000Y-109330000D01*
X89044000Y-109220000D02*
X91804000Y-109220000D01*
X89044000Y-109330000D02*
X91804000Y-109330000D01*
X91804000Y-109220000D02*
X91804000Y-109330000D01*
%TO.C,ESP32-L1*%
X166310000Y-82236000D02*
X167640000Y-82236000D01*
X166310000Y-83566000D02*
X166310000Y-82236000D01*
X168910000Y-82236000D02*
X204530000Y-82236000D01*
X168910000Y-84896000D02*
X168910000Y-82236000D01*
X168910000Y-84896000D02*
X204530000Y-84896000D01*
X204530000Y-84896000D02*
X204530000Y-82236000D01*
%TO.C,JGND1*%
X89298000Y-126636000D02*
X90678000Y-126636000D01*
X89298000Y-128016000D02*
X89298000Y-126636000D01*
X89298000Y-129286000D02*
X89298000Y-129396000D01*
X89298000Y-129286000D02*
X92058000Y-129286000D01*
X89298000Y-129396000D02*
X92058000Y-129396000D01*
X92058000Y-129286000D02*
X92058000Y-129396000D01*
%TD*%
M02*
